<svg width="99" height="34" viewBox="0 0 99 34" fill="none" xmlns="http://www.w3.org/2000/svg">
<path d="M8.65501 7.68535H9.7271V8.85957H10.8997V5.35278H9.7271V6.51166H8.65501V5.35278H7.48291V8.85957H8.65501V7.68535Z" fill="#181b31"/>
<path d="M12.4407 8.85957H13.6128V6.51642H14.6441V5.35278H11.4093V6.51642H12.4407V8.85957Z" fill="#181b31"/>
<path d="M16.3047 7.12231L17.1122 8.3685H17.1317L17.9377 7.12231V8.85957H19.1055V5.35278H17.8832L17.1317 6.5868L16.3803 5.35278H15.1585V8.85957H16.3047V7.12231Z" fill="#181b31"/>
<path d="M22.5091 7.70122H20.8608V5.35278H19.6887V8.85957H22.5091V7.70122Z" fill="#181b31"/>
<path d="M5.79382 10.3984L7.47022 29.2008L14.9955 31.2894L22.5266 29.2018L24.2061 10.3984H5.79382ZM20.5692 16.5473H14.9997H11.7443L11.9549 18.909H14.9997H20.3596L19.7273 25.9908L14.9997 27.3005L14.9965 27.3016L10.2722 25.9908L9.94248 22.2867H12.2571L12.4285 24.2081L14.9971 24.9023L15.0003 24.9013L17.5715 24.207L17.8392 21.2162H15.0003H9.8467L9.22388 14.2423H14.9997H20.775L20.5692 16.5473Z" fill="#181b31"/>
<path d="M45.3281 26.5H43.3359V18.4258H34.3359V26.5H32.3438V9.36719H34.3359V16.668H43.3359V9.36719H45.3281V26.5ZM55.3008 26.5H53.2969V11.125H47.9062V9.36719H60.668V11.125H55.3008V26.5ZM70.793 26.5L65.0391 11.3359H64.9453C64.9766 11.6562 65.0039 12.0469 65.0273 12.5078C65.0508 12.9688 65.0703 13.4727 65.0859 14.0195C65.1016 14.5586 65.1094 15.1094 65.1094 15.6719V26.5H63.2578V9.36719H66.2109L71.6367 23.6172H71.7188L77.2266 9.36719H80.1562V26.5H78.1875V15.5312C78.1875 15.0234 78.1953 14.5156 78.2109 14.0078C78.2266 13.4922 78.2461 13.0078 78.2695 12.5547C78.293 12.0938 78.3164 11.6953 78.3398 11.3594H78.2461L72.4219 26.5H70.793ZM84.8438 26.5V9.36719H86.8359V24.7188H94.4414V26.5H84.8438Z" fill="#181b31"/>
</svg>
