<svg
              class="name-pacifico"
              width="537"
              height="98"
              viewBox="0 0 537 98"
              fill="none"
              xmlns="http://www.w3.org/2000/svg"
            >
              <path
                d="M71.66 50.39C72.2667 50.39 72.7333 50.67 73.06 51.23C73.4333 51.79 73.62 52.56 73.62 53.54C73.62 55.36 73.1767 56.8067 72.29 57.88C70.05 60.5867 67.7867 62.6867 65.5 64.18C63.2133 65.6267 60.5067 66.35 57.38 66.35C53.9267 66.35 51.1033 65.3467 48.91 63.34C46.7167 61.2867 44.6633 58.1133 42.75 53.82C41.35 50.74 40.1833 48.4533 39.25 46.96C38.3633 45.42 37.4767 44.3467 36.59 43.74C35.7033 43.0867 34.5833 42.69 33.23 42.55L32.46 47.73C31.48 54.4033 29.5667 59.21 26.72 62.15C23.92 65.09 20.0467 66.56 15.1 66.56C11.88 66.56 9.01 65.79 6.49 64.25C4.01667 62.6633 2.29 60.6567 1.31 58.23C0.983333 57.39 0.82 56.48 0.82 55.5C0.82 54.1 1.14667 52.8867 1.8 51.86C2.45333 50.8333 3.29333 50.32 4.32 50.32C4.92667 50.32 5.44 50.4833 5.86 50.81C6.28 51.09 6.67667 51.6033 7.05 52.35C8.49667 55.0567 9.75667 56.9467 10.83 58.02C11.95 59.0933 13.3267 59.63 14.96 59.63C16.8267 59.63 18.4133 58.79 19.72 57.11C21.0733 55.3833 22.03 52.7467 22.59 49.2L23.57 42.55H22.45C21.3767 42.55 20.5367 42.2467 19.93 41.64C19.3233 41.0333 19.02 40.1933 19.02 39.12C19.02 37.9067 19.3233 36.95 19.93 36.25C20.5833 35.5033 21.3767 35.13 22.31 35.13H24.62C24.9467 32.8433 25.18 31.2567 25.32 30.37L27.49 14.62C26.2767 14.48 25.1333 14.41 24.06 14.41C20.0933 14.41 17.0833 15.11 15.03 16.51C12.9767 17.8633 11.95 19.8233 11.95 22.39C11.95 23.5567 12.0667 24.5133 12.3 25.26C12.58 25.96 12.93 26.7533 13.35 27.64C13.5367 28.0133 13.63 28.4333 13.63 28.9C13.63 29.9267 13.14 30.8367 12.16 31.63C11.2267 32.3767 10.1767 32.75 9.01 32.75C7.51667 32.75 6.42 32.0967 5.72 30.79C4.32 28.3167 3.62 25.6567 3.62 22.81C3.62 19.87 4.41333 17.1867 6 14.76C7.63333 12.3333 10.0833 10.3967 13.35 8.95C16.6167 7.45666 20.6533 6.71 25.46 6.71C27.56 6.71 29.4733 6.82666 31.2 7.06C32.9733 7.29333 34.91 7.73667 37.01 8.39C39.2967 9.09 40.44 10.3967 40.44 12.31C40.44 14.8767 39.3433 16.16 37.15 16.16L34.42 34.99C39.88 34.43 44.3133 32.0967 47.72 27.99C51.1733 23.8367 54.0433 18.2133 56.33 11.12C56.75 9.81333 57.45 8.81 58.43 8.11C59.4567 7.41 60.74 7.06 62.28 7.06C63.5867 7.06 64.59 7.36333 65.29 7.97C66.0367 8.53 66.41 9.34666 66.41 10.42C66.41 10.7467 66.3167 11.2833 66.13 12.03C63.7967 19.73 60.46 25.8433 56.12 30.37C51.78 34.8967 47.0433 37.9067 41.91 39.4C43.6833 39.82 45.13 40.45 46.25 41.29C47.4167 42.13 48.3967 43.18 49.19 44.44C49.9833 45.6533 50.8933 47.3567 51.92 49.55C53.3667 52.63 54.72 54.8233 55.98 56.13C57.24 57.39 58.71 58.02 60.39 58.02C61.8833 58.02 63.3067 57.53 64.66 56.55C66.0133 55.5233 67.7167 53.7967 69.77 51.37C70.33 50.7167 70.96 50.39 71.66 50.39ZM75.6866 66.35C73.9133 66.35 72.6533 65.4167 71.9066 63.55C71.2066 61.6833 70.8566 58.6967 70.8566 54.59C70.8566 48.5233 71.72 42.76 73.4466 37.3C73.8666 35.9467 74.5433 34.9667 75.4766 34.36C76.4566 33.7067 77.81 33.38 79.5366 33.38C80.47 33.38 81.1233 33.4967 81.4966 33.73C81.87 33.9633 82.0566 34.4067 82.0566 35.06C82.0566 35.8067 81.7066 37.4867 81.0066 40.1C80.54 41.9667 80.1666 43.6 79.8866 45C79.6066 46.4 79.3733 48.1267 79.1866 50.18C80.7266 46.1667 82.4533 42.9 84.3666 40.38C86.28 37.86 88.1466 36.0633 89.9666 34.99C91.8333 33.9167 93.5366 33.38 95.0766 33.38C98.11 33.38 99.6266 34.8967 99.6266 37.93C99.6266 38.5367 99.4166 40.0067 98.9966 42.34C98.6233 44.2067 98.4366 45.3733 98.4366 45.84C98.4366 47.4733 99.02 48.29 100.187 48.29C101.493 48.29 103.173 47.2633 105.227 45.21C105.833 44.6033 106.463 44.3 107.117 44.3C107.723 44.3 108.19 44.58 108.517 45.14C108.89 45.6533 109.077 46.3533 109.077 47.24C109.077 48.9667 108.61 50.32 107.677 51.3C106.37 52.6533 104.83 53.82 103.057 54.8C101.33 55.7333 99.4866 56.2 97.5266 56.2C95.0533 56.2 93.1633 55.57 91.8566 54.31C90.5966 53.05 89.9666 51.3467 89.9666 49.2C89.9666 48.5 90.0366 47.8 90.1766 47.1C90.27 46.1667 90.3166 45.5367 90.3166 45.21C90.3166 44.4633 90.06 44.09 89.5466 44.09C88.8466 44.09 87.9133 44.8833 86.7466 46.47C85.6266 48.01 84.5066 50.0633 83.3866 52.63C82.2666 55.1967 81.3566 57.9033 80.6566 60.75C80.1433 62.9433 79.5366 64.4367 78.8366 65.23C78.1833 65.9767 77.1333 66.35 75.6866 66.35ZM114.542 28.76C112.582 28.76 111.112 28.3167 110.132 27.43C109.152 26.4967 108.662 25.2133 108.662 23.58C108.662 21.9467 109.292 20.5933 110.552 19.52C111.859 18.4 113.469 17.84 115.382 17.84C117.109 17.84 118.509 18.26 119.582 19.1C120.655 19.94 121.192 21.13 121.192 22.67C121.192 24.5367 120.585 26.03 119.372 27.15C118.159 28.2233 116.549 28.76 114.542 28.76ZM113.982 66.35C110.949 66.35 108.732 65.2767 107.332 63.13C105.979 60.9833 105.302 58.1367 105.302 54.59C105.302 52.49 105.559 49.8067 106.072 46.54C106.632 43.2267 107.332 40.1467 108.172 37.3C108.592 35.8067 109.152 34.78 109.852 34.22C110.552 33.66 111.672 33.38 113.212 33.38C115.592 33.38 116.782 34.1733 116.782 35.76C116.782 36.9267 116.339 39.6333 115.452 43.88C114.332 49.0133 113.772 52.49 113.772 54.31C113.772 55.71 113.959 56.7833 114.332 57.53C114.705 58.2767 115.335 58.65 116.222 58.65C117.062 58.65 118.112 58.0667 119.372 56.9C120.632 55.7333 122.312 53.89 124.412 51.37C124.972 50.7167 125.602 50.39 126.302 50.39C126.909 50.39 127.375 50.67 127.702 51.23C128.075 51.79 128.262 52.56 128.262 53.54C128.262 55.4067 127.819 56.8533 126.932 57.88C122.312 63.5267 117.995 66.35 113.982 66.35ZM138.419 67.89C135.992 67.89 134.125 67.33 132.819 66.21C131.559 65.09 130.929 63.83 130.929 62.43C130.929 61.2167 131.372 60.1667 132.259 59.28C133.145 58.3933 134.452 57.95 136.179 57.95C136.785 57.95 137.485 58.02 138.279 58.16C139.119 58.2533 139.749 58.3233 140.169 58.37C140.122 57.1567 139.842 56.0133 139.329 54.94C138.862 53.8667 138.255 52.84 137.509 51.86C136.762 50.8333 136.062 49.9467 135.409 49.2C133.962 51.9533 132.515 54.24 131.069 56.06C129.669 57.88 128.129 59.6067 126.449 61.24C125.609 62.08 124.722 62.5 123.789 62.5C123.042 62.5 122.435 62.2433 121.969 61.73C121.502 61.17 121.269 60.4933 121.269 59.7C121.269 58.7667 121.595 57.9033 122.249 57.11L123.159 55.99C125.725 52.8167 127.662 50.2033 128.969 48.15C129.762 46.7967 130.695 45 131.769 42.76C132.842 40.4733 133.892 38.1167 134.919 35.69C135.805 33.6367 137.649 32.61 140.449 32.61C141.755 32.61 142.665 32.7267 143.179 32.96C143.692 33.1933 143.949 33.5667 143.949 34.08C143.949 34.36 143.855 34.8033 143.669 35.41C143.482 36.0167 143.225 36.6233 142.899 37.23C142.059 38.91 141.639 40.3333 141.639 41.5C141.639 42.2 141.872 42.97 142.339 43.81C142.852 44.65 143.622 45.7 144.649 46.96C146.142 48.92 147.262 50.6 148.009 52C148.802 53.3533 149.199 54.8467 149.199 56.48C149.199 56.9467 149.152 57.6 149.059 58.44C151.345 57.5533 154.029 55.1967 157.109 51.37C157.669 50.7167 158.299 50.39 158.999 50.39C159.605 50.39 160.072 50.67 160.399 51.23C160.772 51.79 160.959 52.56 160.959 53.54C160.959 55.3133 160.515 56.76 159.629 57.88C157.295 60.7733 155.055 62.7567 152.909 63.83C150.809 64.8567 148.195 65.4167 145.069 65.51C143.202 67.0967 140.985 67.89 138.419 67.89ZM189.292 50.39C189.898 50.39 190.365 50.67 190.692 51.23C191.065 51.79 191.252 52.56 191.252 53.54C191.252 55.4067 190.808 56.8533 189.922 57.88C187.915 60.3533 185.722 62.3833 183.342 63.97C180.962 65.5567 178.232 66.35 175.152 66.35C165.632 66.35 160.872 59.6533 160.872 46.26C160.872 44.2067 160.942 42.13 161.082 40.03H158.352C156.952 40.03 155.995 39.7733 155.482 39.26C155.015 38.7467 154.782 37.93 154.782 36.81C154.782 34.1967 155.832 32.89 157.932 32.89H161.922C162.715 27.7567 163.928 23.0667 165.562 18.82C167.195 14.5733 169.155 11.19 171.442 8.67C173.775 6.15 176.272 4.89 178.932 4.89C180.892 4.89 182.432 5.75333 183.552 7.48C184.672 9.20666 185.232 11.3767 185.232 13.99C185.232 21.2233 182.198 27.5233 176.132 32.89H183.972C184.718 32.89 185.255 33.0533 185.582 33.38C185.908 33.7067 186.072 34.3133 186.072 35.2C186.072 38.42 183.435 40.03 178.162 40.03H169.622C169.528 42.3633 169.482 44.1833 169.482 45.49C169.482 50.3433 170.042 53.75 171.162 55.71C172.328 57.67 174.148 58.65 176.622 58.65C178.628 58.65 180.402 58.0433 181.942 56.83C183.482 55.6167 185.302 53.7967 187.402 51.37C187.962 50.7167 188.592 50.39 189.292 50.39ZM177.042 11.61C176.342 11.61 175.548 12.4967 174.662 14.27C173.822 15.9967 173.005 18.4233 172.212 21.55C171.465 24.63 170.835 28.06 170.322 31.84C173.075 29.46 175.128 26.8 176.482 23.86C177.882 20.8733 178.582 18.1667 178.582 15.74C178.582 12.9867 178.068 11.61 177.042 11.61ZM224.052 44.51C224.659 44.51 225.126 44.8133 225.452 45.42C225.779 46.0267 225.942 46.7967 225.942 47.73C225.942 49.97 225.266 51.3 223.912 51.72C221.112 52.7 218.032 53.26 214.672 53.4C213.786 57.32 212.036 60.47 209.422 62.85C206.809 65.1833 203.846 66.35 200.532 66.35C197.732 66.35 195.329 65.6733 193.322 64.32C191.362 62.9667 189.869 61.17 188.842 58.93C187.816 56.69 187.302 54.2633 187.302 51.65C187.302 48.1033 187.979 44.9533 189.332 42.2C190.686 39.4 192.552 37.23 194.932 35.69C197.312 34.1033 199.949 33.31 202.842 33.31C206.389 33.31 209.236 34.5467 211.382 37.02C213.576 39.4467 214.859 42.4567 215.232 46.05C217.426 45.91 220.039 45.4433 223.072 44.65C223.446 44.5567 223.772 44.51 224.052 44.51ZM201.092 58.93C202.586 58.93 203.869 58.3233 204.942 57.11C206.062 55.8967 206.809 54.1467 207.182 51.86C205.736 50.88 204.616 49.5967 203.822 48.01C203.076 46.4233 202.702 44.7433 202.702 42.97C202.702 42.2233 202.772 41.4767 202.912 40.73H202.562C200.696 40.73 199.132 41.64 197.872 43.46C196.659 45.2333 196.052 47.7533 196.052 51.02C196.052 53.5867 196.542 55.5467 197.522 56.9C198.549 58.2533 199.739 58.93 201.092 58.93ZM260.114 50.39C260.721 50.39 261.188 50.67 261.514 51.23C261.888 51.79 262.074 52.56 262.074 53.54C262.074 55.4067 261.631 56.8533 260.744 57.88C258.738 60.3533 256.568 62.3833 254.234 63.97C251.948 65.5567 249.334 66.35 246.394 66.35C243.921 66.35 241.914 65.4633 240.374 63.69C237.714 65.4167 234.938 66.3033 232.044 66.35C231.438 75.3567 230.061 82.87 227.914 88.89C225.768 94.9567 222.618 97.99 218.464 97.99C215.944 97.99 214.078 97.08 212.864 95.26C211.651 93.44 211.044 90.92 211.044 87.7C211.044 83.1267 212.094 77.7833 214.194 71.67C216.294 65.6033 219.538 58.9067 223.924 51.58C223.924 44.7667 223.878 40.03 223.784 37.37C223.738 36.0167 224.274 34.9433 225.394 34.15C226.514 33.3567 227.914 32.96 229.594 32.96C230.574 32.96 231.274 33.17 231.694 33.59C232.161 33.9633 232.418 34.7333 232.464 35.9C232.464 37.0667 232.488 37.93 232.534 38.49C234.028 36.6233 235.498 35.2933 236.944 34.5C238.391 33.66 239.931 33.24 241.564 33.24C244.178 33.24 246.301 34.29 247.934 36.39C249.614 38.49 250.454 41.2433 250.454 44.65C250.454 47.1233 250.058 49.5267 249.264 51.86C248.471 54.1933 247.374 56.3167 245.974 58.23C246.954 58.51 247.771 58.65 248.424 58.65C249.964 58.65 251.434 58.09 252.834 56.97C254.234 55.85 256.031 53.9833 258.224 51.37C258.784 50.7167 259.414 50.39 260.114 50.39ZM232.394 59.63C234.074 59.2567 235.614 58.3467 237.014 56.9C238.461 55.4067 239.604 53.5867 240.444 51.44C241.284 49.2467 241.704 46.96 241.704 44.58C241.704 43.18 241.424 42.13 240.864 41.43C240.304 40.6833 239.558 40.31 238.624 40.31C236.944 40.31 234.914 42.0833 232.534 45.63C232.488 47.6833 232.464 50.6933 232.464 54.66C232.464 56.8067 232.441 58.4633 232.394 59.63ZM219.024 91.13C220.284 91.13 221.334 88.3767 222.174 82.87C223.014 77.41 223.551 70.5967 223.784 62.43C221.778 67.0967 220.191 71.5533 219.024 75.8C217.858 80.0467 217.274 83.6167 217.274 86.51C217.274 88.0033 217.461 89.1467 217.834 89.94C218.161 90.7333 218.558 91.13 219.024 91.13ZM298.085 50.39C298.692 50.39 299.159 50.67 299.485 51.23C299.859 51.79 300.045 52.56 300.045 53.54C300.045 55.4067 299.602 56.8533 298.715 57.88C296.569 60.3533 294.352 62.3833 292.065 63.97C289.825 65.5567 287.259 66.35 284.365 66.35C281.985 66.35 280.189 65.6733 278.975 64.32C277.762 62.92 277.155 60.9133 277.155 58.3C277.155 56.9933 277.482 54.66 278.135 51.3C278.742 48.36 279.045 46.33 279.045 45.21C279.045 44.4633 278.789 44.09 278.275 44.09C277.669 44.09 276.805 44.8833 275.685 46.47C274.565 48.01 273.445 50.0633 272.325 52.63C271.205 55.1967 270.295 57.9033 269.595 60.75C268.709 64.4833 266.515 66.35 263.015 66.35C261.615 66.35 260.682 65.86 260.215 64.88C259.795 63.8533 259.585 62.0333 259.585 59.42C259.585 57.9267 259.609 56.7367 259.655 55.85L259.725 50.25C259.725 43.0633 260.449 35.5733 261.895 27.78C263.389 19.9867 265.559 13.4533 268.405 8.18C271.299 2.86 274.752 0.199996 278.765 0.199996C280.912 0.199996 282.639 1.13333 283.945 3C285.299 4.82 285.975 7.2 285.975 10.14C285.975 14.8533 284.599 19.7533 281.845 24.84C279.092 29.88 274.612 35.7833 268.405 42.55C268.265 44.9767 268.195 47.4733 268.195 50.04C269.735 46.0733 271.439 42.8533 273.305 40.38C275.219 37.86 277.085 36.0633 278.905 34.99C280.772 33.9167 282.475 33.38 284.015 33.38C287.049 33.38 288.565 34.8967 288.565 37.93C288.565 39.75 288.052 43.04 287.025 47.8C286.139 51.86 285.695 54.5433 285.695 55.85C285.695 57.7167 286.372 58.65 287.725 58.65C288.659 58.65 289.755 58.09 291.015 56.97C292.322 55.8033 294.049 53.9367 296.195 51.37C296.755 50.7167 297.385 50.39 298.085 50.39ZM277.295 7.13C276.455 7.13 275.522 8.34333 274.495 10.77C273.469 13.15 272.465 16.3933 271.485 20.5C270.552 24.56 269.782 28.9933 269.175 33.8C272.069 30.3933 274.449 26.6833 276.315 22.67C278.229 18.6567 279.185 15.0167 279.185 11.75C279.185 10.2567 279.022 9.11333 278.695 8.32C278.369 7.52666 277.902 7.13 277.295 7.13ZM328.392 50.39C328.999 50.39 329.465 50.67 329.792 51.23C330.165 51.79 330.352 52.56 330.352 53.54C330.352 55.4067 329.909 56.8533 329.022 57.88C327.295 59.98 324.845 61.9167 321.672 63.69C318.545 65.4633 315.185 66.35 311.592 66.35C306.692 66.35 302.889 65.02 300.182 62.36C297.475 59.7 296.122 56.06 296.122 51.44C296.122 48.22 296.799 45.2333 298.152 42.48C299.505 39.68 301.372 37.4633 303.752 35.83C306.179 34.1967 308.909 33.38 311.942 33.38C314.649 33.38 316.819 34.1967 318.452 35.83C320.085 37.4167 320.902 39.5867 320.902 42.34C320.902 45.56 319.735 48.3367 317.402 50.67C315.115 52.9567 311.219 54.7767 305.712 56.13C306.879 58.2767 309.095 59.35 312.362 59.35C314.462 59.35 316.842 58.6267 319.502 57.18C322.209 55.6867 324.542 53.75 326.502 51.37C327.062 50.7167 327.692 50.39 328.392 50.39ZM310.752 40.24C309.025 40.24 307.555 41.2433 306.342 43.25C305.175 45.2567 304.592 47.6833 304.592 50.53V50.67C307.345 50.0167 309.515 49.0367 311.102 47.73C312.689 46.4233 313.482 44.9067 313.482 43.18C313.482 42.2933 313.225 41.5933 312.712 41.08C312.245 40.52 311.592 40.24 310.752 40.24ZM355.733 42.97C356.759 42.97 357.623 43.3433 358.323 44.09C359.069 44.79 359.443 45.6767 359.443 46.75C359.443 47.3567 359.303 48.01 359.023 48.71C358.276 50.4367 357.226 51.8833 355.873 53.05C354.519 54.2167 353.026 54.8 351.393 54.8C350.086 54.8 348.966 54.3333 348.033 53.4C347.146 52.4667 346.703 51.2067 346.703 49.62C346.703 48.7333 346.749 47.7767 346.843 46.75C346.936 46.0033 346.983 45.49 346.983 45.21C346.983 44.8367 346.889 44.5567 346.703 44.37C346.563 44.1833 346.376 44.09 346.143 44.09C345.489 44.09 344.603 44.8833 343.483 46.47C342.363 48.01 341.243 50.0633 340.123 52.63C339.003 55.1967 338.093 57.9033 337.393 60.75C336.879 62.99 336.296 64.4833 335.643 65.23C334.989 65.9767 333.916 66.35 332.423 66.35C330.649 66.35 329.389 65.4167 328.643 63.55C327.943 61.6833 327.593 58.6967 327.593 54.59C327.593 48.5233 328.456 42.76 330.183 37.3C330.603 35.9467 331.279 34.9667 332.213 34.36C333.193 33.7067 334.546 33.38 336.273 33.38C337.206 33.38 337.859 33.4967 338.233 33.73C338.606 33.9633 338.793 34.4067 338.793 35.06C338.793 35.8067 338.443 37.4867 337.743 40.1C337.276 41.9667 336.903 43.6 336.623 45C336.343 46.4 336.109 48.1267 335.923 50.18C337.463 46.1667 339.189 42.9 341.103 40.38C343.016 37.86 344.883 36.0633 346.703 34.99C348.523 33.9167 350.179 33.38 351.673 33.38C353.026 33.38 354.053 33.7767 354.753 34.57C355.499 35.3167 355.873 36.4367 355.873 37.93C355.873 38.8167 355.616 40.4967 355.103 42.97H355.733ZM444.966 7.97C446.273 8.15666 447.159 8.55333 447.626 9.16C448.139 9.76666 448.396 10.56 448.396 11.54C448.396 14.76 446.669 16.2533 443.216 16.02L440.766 15.81C438.013 15.5767 435.259 15.39 432.506 15.25C429.799 15.11 426.953 15.04 423.966 15.04H420.816C420.256 21.9467 419.673 28.2467 419.066 33.94L431.106 33.73C432.833 33.73 433.976 34.0333 434.536 34.64C435.143 35.2467 435.446 36.0633 435.446 37.09C435.446 38.6767 434.979 39.9367 434.046 40.87C433.113 41.7567 431.783 42.2 430.056 42.2H418.086L417.666 45.21C416.686 52.91 414.586 58.3933 411.366 61.66C408.193 64.9267 403.806 66.56 398.206 66.56C395.033 66.56 392.116 65.8833 389.456 64.53C386.796 63.13 384.836 61.45 383.576 59.49C383.063 58.6967 382.806 57.74 382.806 56.62C382.806 55.5 383.063 54.52 383.576 53.68C384.136 52.84 384.813 52.42 385.606 52.42C386.166 52.42 386.703 52.6067 387.216 52.98C387.776 53.3533 388.476 54.0767 389.316 55.15C391.556 58.09 394.333 59.56 397.646 59.56C400.306 59.56 402.523 58.4867 404.296 56.34C406.116 54.1467 407.283 50.7167 407.796 46.05L408.216 42.2H404.856C403.783 42.2 402.849 41.8967 402.056 41.29C401.309 40.6833 400.936 39.82 400.936 38.7C400.936 37.2533 401.309 36.1567 402.056 35.41C402.803 34.6167 403.899 34.22 405.346 34.22C406.653 34.22 407.936 34.1967 409.196 34.15C409.756 29.0167 410.363 22.7867 411.016 15.46C405.976 15.9267 402.429 16.7433 400.376 17.91C398.323 19.0767 397.296 20.8033 397.296 23.09C397.296 24.6767 397.763 26.1933 398.696 27.64C398.976 28.06 399.116 28.48 399.116 28.9C399.116 29.74 398.649 30.4867 397.716 31.14C396.783 31.7467 395.733 32.05 394.566 32.05C393.306 32.05 392.233 31.6767 391.346 30.93C390.786 30.4633 390.249 29.5067 389.736 28.06C389.223 26.6133 388.966 25.0033 388.966 23.23C388.966 17.4433 391.929 13.2433 397.856 10.63C403.829 8.01666 412.533 6.71 423.966 6.71C431.899 6.71 438.899 7.13 444.966 7.97ZM445.019 66.35C442.126 66.35 439.816 65.3 438.089 63.2C436.363 61.1 435.499 58.3467 435.499 54.94C435.499 51.2067 436.363 47.6833 438.089 44.37C439.816 41.01 442.103 38.3267 444.949 36.32C447.843 34.2667 450.899 33.24 454.119 33.24C455.146 33.24 455.823 33.45 456.149 33.87C456.523 34.2433 456.826 34.9433 457.059 35.97C458.039 35.7833 459.066 35.69 460.139 35.69C462.426 35.69 463.569 36.5067 463.569 38.14C463.569 39.12 463.219 41.4533 462.519 45.14C461.446 50.5067 460.909 54.24 460.909 56.34C460.909 57.04 461.073 57.6 461.399 58.02C461.773 58.44 462.239 58.65 462.799 58.65C463.686 58.65 464.759 58.09 466.019 56.97C467.279 55.8033 468.983 53.9367 471.129 51.37C471.689 50.7167 472.319 50.39 473.019 50.39C473.626 50.39 474.093 50.67 474.419 51.23C474.793 51.79 474.979 52.56 474.979 53.54C474.979 55.4067 474.536 56.8533 473.649 57.88C471.736 60.26 469.706 62.2667 467.559 63.9C465.413 65.5333 463.336 66.35 461.329 66.35C459.789 66.35 458.366 65.8367 457.059 64.81C455.799 63.7367 454.843 62.29 454.189 60.47C451.763 64.39 448.706 66.35 445.019 66.35ZM447.539 59.28C448.566 59.28 449.546 58.6733 450.479 57.46C451.413 56.2467 452.089 54.6367 452.509 52.63L455.099 39.75C453.139 39.7967 451.319 40.5433 449.639 41.99C448.006 43.39 446.699 45.2567 445.719 47.59C444.739 49.9233 444.249 52.3967 444.249 55.01C444.249 56.4567 444.529 57.53 445.089 58.23C445.696 58.93 446.513 59.28 447.539 59.28ZM477.06 66.35C475.287 66.35 474.027 65.4167 473.28 63.55C472.58 61.6833 472.23 58.6967 472.23 54.59C472.23 48.5233 473.093 42.76 474.82 37.3C475.24 35.9467 475.917 34.9667 476.85 34.36C477.83 33.7067 479.183 33.38 480.91 33.38C481.843 33.38 482.497 33.4967 482.87 33.73C483.243 33.9633 483.43 34.4067 483.43 35.06C483.43 35.8067 483.08 37.4867 482.38 40.1C481.913 41.9667 481.54 43.6 481.26 45C480.98 46.4 480.747 48.1267 480.56 50.18C482.1 46.1667 483.827 42.9 485.74 40.38C487.653 37.86 489.52 36.0633 491.34 34.99C493.207 33.9167 494.91 33.38 496.45 33.38C499.483 33.38 501 34.8967 501 37.93C501 39.75 500.487 43.04 499.46 47.8C498.573 51.86 498.13 54.5433 498.13 55.85C498.13 57.7167 498.807 58.65 500.16 58.65C501.093 58.65 502.19 58.09 503.45 56.97C504.757 55.8033 506.483 53.9367 508.63 51.37C509.19 50.7167 509.82 50.39 510.52 50.39C511.127 50.39 511.593 50.67 511.92 51.23C512.293 51.79 512.48 52.56 512.48 53.54C512.48 55.4067 512.037 56.8533 511.15 57.88C509.143 60.3533 506.973 62.3833 504.64 63.97C502.353 65.5567 499.74 66.35 496.8 66.35C494.42 66.35 492.623 65.6733 491.41 64.32C490.197 62.92 489.59 60.9133 489.59 58.3C489.59 56.9933 489.917 54.66 490.57 51.3C491.177 48.36 491.48 46.33 491.48 45.21C491.48 44.4633 491.223 44.09 490.71 44.09C490.103 44.09 489.24 44.8833 488.12 46.47C487.047 48.01 485.927 50.0633 484.76 52.63C483.64 55.1967 482.73 57.9033 482.03 60.75C481.517 62.9433 480.91 64.4367 480.21 65.23C479.557 65.9767 478.507 66.35 477.06 66.35ZM517.667 66.35C515.007 66.35 512.837 65.3 511.157 63.2C509.523 61.1 508.707 58.3467 508.707 54.94C508.707 51.2067 509.57 47.6833 511.297 44.37C513.023 41.01 515.31 38.3267 518.157 36.32C521.05 34.2667 524.107 33.24 527.327 33.24C528.353 33.24 529.03 33.45 529.357 33.87C529.73 34.2433 530.033 34.9433 530.267 35.97C531.153 35.7833 532.133 35.69 533.207 35.69C534.327 35.69 535.19 35.97 535.797 36.53C536.403 37.09 536.707 37.8833 536.707 38.91C536.707 39.9833 536.473 41.85 536.007 44.51C535.493 47.3567 535.097 50.0867 534.817 52.7C534.537 55.2667 534.397 58.16 534.397 61.38C534.397 63.1533 534.023 64.4367 533.277 65.23C532.577 65.9767 531.41 66.35 529.777 66.35C528.19 66.35 527 65.9767 526.207 65.23C525.46 64.4367 525.087 63.1767 525.087 61.45L525.157 60.33C523.71 64.3433 521.213 66.35 517.667 66.35ZM520.397 59.28C521.703 59.28 522.893 58.37 523.967 56.55C525.04 54.73 525.997 51.4867 526.837 46.82L528.167 39.75C526.253 39.7967 524.48 40.5433 522.847 41.99C521.213 43.39 519.907 45.2567 518.927 47.59C517.947 49.9233 517.457 52.3967 517.457 55.01C517.457 56.41 517.713 57.4833 518.227 58.23C518.787 58.93 519.51 59.28 520.397 59.28Z"
                fill="#181B31"
              />
            </svg>