<svg width="63" height="50" viewBox="0 0 63 50" fill="none" xmlns="http://www.w3.org/2000/svg">
<g clip-path="url(#clip0_7_35)">
<path d="M30.8887 44.1407C30.6836 44.1407 30.4785 44.0821 30.293 43.9844L28.418 42.8711C28.1348 42.7149 28.2715 42.6563 28.3691 42.627C28.7402 42.5 28.8184 42.4708 29.2188 42.2364C29.2578 42.2168 29.3164 42.2266 29.3555 42.2461L30.8008 43.1055C30.8496 43.1348 30.9277 43.1348 30.9766 43.1055L36.6211 39.8438C36.6699 39.8145 36.709 39.7559 36.709 39.6875V33.1739C36.709 33.1055 36.6797 33.0469 36.6211 33.0176L30.9766 29.7657C30.9277 29.7364 30.8594 29.7364 30.8008 29.7657L25.1563 33.0176C25.0977 33.0469 25.0684 33.1153 25.0684 33.1739V39.6875C25.0684 39.7461 25.1074 39.8047 25.1563 39.834L26.6992 40.7227C27.5391 41.1426 28.0566 40.6446 28.0566 40.1563V33.7208C28.0566 33.6329 28.125 33.5547 28.2227 33.5547H28.9355C29.0234 33.5547 29.1016 33.6231 29.1016 33.7208V40.1563C29.1016 41.2793 28.4961 41.9141 27.4316 41.9141C27.1094 41.9141 26.8457 41.9141 26.1328 41.5625L24.6484 40.7129C24.2871 40.4981 24.0527 40.1075 24.0527 39.6875V33.1739C24.0527 32.754 24.2773 32.3536 24.6484 32.1485L30.293 28.8868C30.6543 28.6817 31.123 28.6817 31.4746 28.8868L37.1191 32.1485C37.4805 32.3633 37.7148 32.754 37.7148 33.1739V39.6875C37.7148 40.1075 37.4902 40.5079 37.1191 40.7129L31.4746 43.9747C31.3086 44.0821 31.1035 44.1407 30.8887 44.1407ZM35.4492 37.7149C35.4492 36.4942 34.6289 36.1719 32.8906 35.9375C31.1328 35.7032 30.957 35.586 30.957 35.1758C30.957 34.834 31.1035 34.3848 32.4023 34.3848C33.5645 34.3848 33.9941 34.6387 34.1699 35.42C34.1895 35.4981 34.248 35.5469 34.3262 35.5469H35.0586C35.1074 35.5469 35.1465 35.5274 35.1758 35.4981C35.2051 35.459 35.2246 35.42 35.2148 35.3711C35.0977 34.0235 34.209 33.3985 32.4023 33.3985C30.791 33.3985 29.834 34.0821 29.834 35.2149C29.834 36.4551 30.791 36.7872 32.334 36.9434C34.1797 37.129 34.3262 37.3926 34.3262 37.754C34.3262 38.3887 33.8184 38.6524 32.627 38.6524C31.1328 38.6524 30.8008 38.2813 30.6934 37.5391C30.6836 37.461 30.6152 37.4024 30.5273 37.4024H29.7949C29.707 37.4024 29.6289 37.4708 29.6289 37.5684C29.6289 38.5157 30.1465 39.6485 32.6172 39.6485C34.4238 39.6485 35.4492 38.9454 35.4492 37.7149ZM40.7715 32.8223C40.7715 33.418 40.2832 33.9063 39.6875 33.9063C39.0918 33.9063 38.6035 33.418 38.6035 32.8223C38.6035 32.2071 39.1113 31.7383 39.6875 31.7383C40.2734 31.7286 40.7715 32.2071 40.7715 32.8223ZM40.5957 32.8223C40.5957 32.3145 40.1855 31.9141 39.6777 31.9141C39.1797 31.9141 38.7695 32.3145 38.7695 32.8223C38.7695 33.3301 39.1797 33.7403 39.6777 33.7403C40.1855 33.7305 40.5957 33.3204 40.5957 32.8223ZM40.1563 33.4278H39.9023C39.8926 33.3692 39.8535 33.0567 39.8535 33.0469C39.834 32.9786 39.8145 32.9395 39.7266 32.9395H39.5117V33.4278H39.2773V32.2071H39.6973C39.8438 32.2071 40.127 32.2071 40.127 32.5293C40.127 32.754 39.9805 32.8028 39.8926 32.8321C40.0586 32.8418 40.0684 32.9493 40.0977 33.1055C40.1074 33.2032 40.127 33.3692 40.1563 33.4278ZM39.8828 32.5684C39.8828 32.4024 39.7656 32.4024 39.707 32.4024H39.5117V32.7442H39.6973C39.8535 32.7442 39.8828 32.6368 39.8828 32.5684ZM13.4082 18.6524C13.4082 18.3887 13.2715 18.1543 13.0469 18.0274L7.06055 14.5801C6.96289 14.5215 6.8457 14.4922 6.72852 14.4825H6.66992C6.55273 14.4825 6.44531 14.5215 6.33789 14.5801L0.361328 18.0274C0.136719 18.1543 0 18.3985 0 18.6524L0.00976563 27.9297C0.00976563 28.0567 0.078125 28.1739 0.185547 28.2422C0.292969 28.3106 0.429687 28.3106 0.546875 28.2422L4.10156 26.2012C4.32617 26.0645 4.46289 25.8301 4.46289 25.5762V21.2403C4.46289 20.9864 4.59961 20.7422 4.82422 20.6153L6.33789 19.7461C6.45508 19.6778 6.57227 19.6485 6.69922 19.6485C6.82617 19.6485 6.95313 19.6778 7.06055 19.7461L8.57422 20.6153C8.79883 20.7422 8.93555 20.9864 8.93555 21.2403V25.5762C8.93555 25.8301 9.07227 26.0743 9.29687 26.2012L12.8516 28.2422C12.959 28.3106 13.1055 28.3106 13.2129 28.2422C13.3203 28.1836 13.3887 28.0567 13.3887 27.9297L13.4082 18.6524ZM46.1426 8.52544V25.752C46.1426 26.0059 46.0059 26.25 45.7812 26.377L39.7949 29.834C39.5703 29.961 39.2969 29.961 39.0723 29.834L33.0859 26.377C32.8613 26.25 32.7246 26.0059 32.7246 25.752V18.8379C32.7246 18.584 32.8613 18.3399 33.0859 18.2129L39.0723 14.7559C39.2969 14.629 39.5703 14.629 39.7949 14.7559L41.2891 15.6153C41.4551 15.7129 41.6699 15.586 41.6699 15.4004V6.22075C41.6699 5.94731 41.9629 5.77153 42.207 5.90825L45.7715 7.90044C45.9961 8.01763 46.1426 8.26177 46.1426 8.52544ZM41.6504 21.1133C41.6504 21.045 41.6113 20.9864 41.5625 20.9571L39.5117 19.7657C39.4531 19.7364 39.3848 19.7364 39.3262 19.7657L37.2754 20.9571C37.2168 20.9864 37.1875 21.045 37.1875 21.1133V23.4864C37.1875 23.5547 37.2266 23.6133 37.2754 23.6426L39.3262 24.8243C39.3848 24.8536 39.4531 24.8536 39.502 24.8243L41.5527 23.6426C41.6113 23.6133 41.6406 23.5547 41.6406 23.4864V21.1133H41.6504ZM62.1387 21.045C62.3633 20.918 62.5 20.6739 62.5 20.42V18.75C62.5 18.4961 62.3633 18.252 62.1387 18.125L56.1914 14.668C55.9668 14.5411 55.6934 14.5411 55.4688 14.668L49.4824 18.125C49.2578 18.252 49.1211 18.4961 49.1211 18.75V25.6641C49.1211 25.9278 49.2578 26.1622 49.4824 26.2891L55.4297 29.6778C55.6445 29.8047 55.918 29.8047 56.1426 29.6778L59.7363 27.6758C59.9805 27.5391 59.9805 27.1875 59.7363 27.0508L53.7109 23.5938C53.5937 23.5254 53.5254 23.4083 53.5254 23.2813V21.1133C53.5254 20.9864 53.5937 20.8692 53.7109 20.8008L55.5859 19.7168C55.6934 19.6485 55.8398 19.6485 55.9473 19.7168L57.8223 20.8008C57.9297 20.8692 58.0078 20.9864 58.0078 21.1133V22.8125C58.0078 23.086 58.3105 23.2618 58.5547 23.125L62.1387 21.045ZM54.5898 21.3868C54.5508 21.4161 54.5215 21.4551 54.5215 21.504V22.8321C54.5215 22.8809 54.5508 22.9297 54.5898 22.9493L55.7422 23.6133C55.7812 23.6426 55.8398 23.6426 55.8789 23.6133L57.0312 22.9493C57.0703 22.92 57.0996 22.8809 57.0996 22.8321V21.504C57.0996 21.4551 57.0703 21.4063 57.0312 21.3868L55.8789 20.7227C55.8398 20.6934 55.7812 20.6934 55.7422 20.7227L54.5898 21.3868ZM29.7656 25.6348V18.7598C29.7656 18.5059 29.6094 18.2618 29.3848 18.1348L23.418 14.6973C23.2129 14.5801 22.9297 14.5606 22.6953 14.6973L16.7285 18.1348C16.5039 18.2618 16.3477 18.4961 16.3477 18.7598V25.6348C16.3477 25.9083 16.5332 26.1426 16.7383 26.2598L22.7148 29.6973C22.9492 29.834 23.2227 29.8243 23.4375 29.6973L29.3945 26.2598C29.5703 26.1622 29.6973 25.9961 29.7461 25.8008C29.7559 25.752 29.7656 25.6934 29.7656 25.6348ZM22.5098 13.4375L22.4316 13.4864H22.5391L22.5098 13.4375ZM29.9512 26.1524L29.9121 26.084V26.1719L29.9512 26.1524Z" fill="#181b31"/>
</g>
<defs>
<clipPath id="clip0_7_35">
<rect width="62.5" height="50" fill="white"/>
</clipPath>
</defs>
</svg>
