<svg width="138" height="35" viewBox="0 0 138 35" fill="#181b31" xmlns="http://www.w3.org/2000/svg">
<g clip-path="url(#clip0_7_15)">
<path d="M14.1978 18.4137H20.1085L17.1517 11.4649M17.1517 0.512695L0.980835 6.14961L3.44721 27.0596L17.1517 34.4872L30.8605 27.0667L33.3254 6.15245L17.1517 0.514112V0.512695ZM27.2431 26.4334H23.4742L21.4439 21.4737H12.8609L10.8306 26.4334H7.05885L17.1531 4.26545L27.2431 26.4334Z"/>
</g>
<path d="M34.736 25.5V8.7H36.2L47.792 23.292H47.024V8.7H48.776V25.5H47.312L35.744 10.908H36.512V25.5H34.736ZM61.6274 25.644C60.3474 25.644 59.1634 25.436 58.0754 25.02C57.0034 24.588 56.0674 23.988 55.2674 23.22C54.4834 22.452 53.8674 21.548 53.4194 20.508C52.9874 19.468 52.7714 18.332 52.7714 17.1C52.7714 15.868 52.9874 14.732 53.4194 13.692C53.8674 12.652 54.4914 11.748 55.2914 10.98C56.0914 10.212 57.0274 9.62 58.0994 9.204C59.1874 8.772 60.3714 8.556 61.6514 8.556C62.9314 8.556 64.0994 8.756 65.1554 9.156C66.2274 9.556 67.1394 10.164 67.8914 10.98L66.7874 12.108C66.0834 11.404 65.3074 10.9 64.4594 10.596C63.6114 10.292 62.6994 10.14 61.7234 10.14C60.6834 10.14 59.7234 10.316 58.8434 10.668C57.9794 11.004 57.2194 11.492 56.5634 12.132C55.9234 12.756 55.4194 13.492 55.0514 14.34C54.6994 15.172 54.5234 16.092 54.5234 17.1C54.5234 18.092 54.6994 19.012 55.0514 19.86C55.4194 20.708 55.9234 21.452 56.5634 22.092C57.2194 22.716 57.9794 23.204 58.8434 23.556C59.7234 23.892 60.6754 24.06 61.6994 24.06C62.6594 24.06 63.5634 23.916 64.4114 23.628C65.2754 23.34 66.0674 22.852 66.7874 22.164L67.7954 23.508C66.9954 24.212 66.0594 24.748 64.9874 25.116C63.9154 25.468 62.7954 25.644 61.6274 25.644ZM66.0914 23.292V17.1H67.7954V23.508L66.0914 23.292ZM79.5899 25.644C77.4459 25.644 75.7579 25.028 74.5259 23.796C73.2939 22.564 72.6779 20.74 72.6779 18.324V8.7H74.4539V18.252C74.4539 20.236 74.9019 21.7 75.7979 22.644C76.6939 23.588 77.9579 24.06 79.5899 24.06C81.2379 24.06 82.5099 23.588 83.4059 22.644C84.3019 21.7 84.7499 20.236 84.7499 18.252V8.7H86.4779V18.324C86.4779 20.74 85.8619 22.564 84.6299 23.796C83.4139 25.028 81.7339 25.644 79.5899 25.644ZM91.8298 25.5V8.7H93.6058V23.964H103.014V25.5H91.8298ZM103.275 25.5L110.955 8.7H112.707L120.387 25.5H118.515L111.459 9.732H112.179L105.123 25.5H103.275ZM106.299 21.012L106.827 19.572H116.595L117.123 21.012H106.299ZM123.166 25.5V8.7H129.454C130.878 8.7 132.102 8.932 133.126 9.396C134.15 9.844 134.934 10.5 135.478 11.364C136.038 12.212 136.318 13.244 136.318 14.46C136.318 15.644 136.038 16.668 135.478 17.532C134.934 18.38 134.15 19.036 133.126 19.5C132.102 19.948 130.878 20.172 129.454 20.172H124.15L124.942 19.356V25.5H123.166ZM134.638 25.5L130.318 19.404H132.238L136.582 25.5H134.638ZM124.942 19.5L124.15 18.66H129.406C131.086 18.66 132.358 18.292 133.222 17.556C134.102 16.82 134.542 15.788 134.542 14.46C134.542 13.116 134.102 12.076 133.222 11.34C132.358 10.604 131.086 10.236 129.406 10.236H124.15L124.942 9.396V19.5Z" fill="#181b31"/>
<defs>
<clipPath id="clip0_7_15">
<rect width="34.3148" height="34" fill="white" transform="translate(0 0.5)"/>
</clipPath>
</defs>
</svg>
