<svg width="153" height="34" viewBox="0 0 153 34" fill="none" xmlns="http://www.w3.org/2000/svg">
<path d="M15.6328 14.6988C15.6328 13.564 14.9016 12.9375 13.6172 12.9375H11.2547V16.5937H13.2469C14.7844 16.5885 15.6328 15.9107 15.6328 14.6988ZM24.2344 14.0415C23.7891 12.4548 23.7234 10.5086 23.775 9.00402C23.8266 7.43782 22.7109 6 21.2109 6H5.79844C4.29375 6 3.18281 7.44296 3.23438 9.00402C3.28125 10.5086 3.22031 12.4548 2.775 14.0415C2.325 15.6334 1.57031 16.6399 0.328125 16.7683V18.2317C1.56562 18.3601 2.325 19.3666 2.775 20.9585C3.22031 22.5452 3.28594 24.4914 3.23438 25.996C3.18281 27.5622 4.29844 29 5.79844 29H21.2062C22.7109 29 23.8219 27.557 23.7703 25.996C23.7234 24.4914 23.7844 22.5452 24.2297 20.9585C24.6797 19.3666 25.4344 18.3601 26.6719 18.2317V16.7683C25.4391 16.6399 24.6797 15.6334 24.2344 14.0415ZM14.0719 23.6184H9.48281V11.3816H14.0484C16.0781 11.3816 17.4094 12.5832 17.4094 14.4318C17.4094 15.731 16.5141 16.8915 15.3703 17.0918V17.1585C16.9266 17.3434 17.9719 18.5244 17.9719 20.1523C17.9719 22.3141 16.5047 23.6184 14.0719 23.6184ZM13.6031 18.0366H11.2547V22.0625H13.7062C15.3094 22.0625 16.1578 21.359 16.1578 20.0342C16.1578 18.7144 15.2859 18.0366 13.6031 18.0366Z" fill="#181b31"/>
<path d="M35.3438 9.36719H40.1953C42.3359 9.36719 43.9453 9.6875 45.0234 10.3281C46.1016 10.9688 46.6406 12.0586 46.6406 13.5977C46.6406 14.2617 46.5117 14.8594 46.2539 15.3906C46.0039 15.9141 45.6367 16.3477 45.1523 16.6914C44.668 17.0352 44.0703 17.2734 43.3594 17.4062V17.5234C44.1094 17.6406 44.7734 17.8555 45.3516 18.168C45.9297 18.4805 46.3828 18.918 46.7109 19.4805C47.0391 20.043 47.2031 20.7578 47.2031 21.625C47.2031 22.6797 46.957 23.5703 46.4648 24.2969C45.9805 25.0234 45.293 25.5742 44.4023 25.9492C43.5117 26.3164 42.457 26.5 41.2383 26.5H35.3438V9.36719ZM37.3359 16.7148H40.6172C42.1094 16.7148 43.1406 16.4688 43.7109 15.9766C44.2891 15.4844 44.5781 14.7656 44.5781 13.8203C44.5781 12.8438 44.2344 12.1406 43.5469 11.7109C42.8672 11.2812 41.7812 11.0664 40.2891 11.0664H37.3359V16.7148ZM37.3359 18.3906V24.8008H40.8984C42.4219 24.8008 43.5 24.5039 44.1328 23.9102C44.7656 23.3086 45.082 22.5 45.082 21.4844C45.082 20.8359 44.9375 20.2812 44.6484 19.8203C44.3672 19.3594 43.9062 19.0078 43.2656 18.7656C42.6328 18.5156 41.7852 18.3906 40.7227 18.3906H37.3359ZM61.6406 20.0547C61.6406 21.1094 61.5039 22.0508 61.2305 22.8789C60.957 23.707 60.5625 24.4062 60.0469 24.9766C59.5312 25.5469 58.9062 25.9844 58.1719 26.2891C57.4453 26.5859 56.6211 26.7344 55.6992 26.7344C54.8398 26.7344 54.0508 26.5859 53.332 26.2891C52.6211 25.9844 52.0039 25.5469 51.4805 24.9766C50.9648 24.4062 50.5625 23.707 50.2734 22.8789C49.9922 22.0508 49.8516 21.1094 49.8516 20.0547C49.8516 18.6484 50.0898 17.4531 50.5664 16.4688C51.043 15.4766 51.7227 14.7227 52.6055 14.207C53.4961 13.6836 54.5547 13.4219 55.7812 13.4219C56.9531 13.4219 57.9766 13.6836 58.8516 14.207C59.7344 14.7305 60.418 15.4883 60.9023 16.4805C61.3945 17.4648 61.6406 18.6562 61.6406 20.0547ZM51.8672 20.0547C51.8672 21.0859 52.0039 21.9805 52.2773 22.7383C52.5508 23.4961 52.9727 24.082 53.543 24.4961C54.1133 24.9102 54.8477 25.1172 55.7461 25.1172C56.6367 25.1172 57.3672 24.9102 57.9375 24.4961C58.5156 24.082 58.9414 23.4961 59.2148 22.7383C59.4883 21.9805 59.625 21.0859 59.625 20.0547C59.625 19.0312 59.4883 18.1484 59.2148 17.4062C58.9414 16.6562 58.5195 16.0781 57.9492 15.6719C57.3789 15.2656 56.6406 15.0625 55.7344 15.0625C54.3984 15.0625 53.418 15.5039 52.793 16.3867C52.1758 17.2695 51.8672 18.4922 51.8672 20.0547ZM76.0781 20.0547C76.0781 21.1094 75.9414 22.0508 75.668 22.8789C75.3945 23.707 75 24.4062 74.4844 24.9766C73.9688 25.5469 73.3438 25.9844 72.6094 26.2891C71.8828 26.5859 71.0586 26.7344 70.1367 26.7344C69.2773 26.7344 68.4883 26.5859 67.7695 26.2891C67.0586 25.9844 66.4414 25.5469 65.918 24.9766C65.4023 24.4062 65 23.707 64.7109 22.8789C64.4297 22.0508 64.2891 21.1094 64.2891 20.0547C64.2891 18.6484 64.5273 17.4531 65.0039 16.4688C65.4805 15.4766 66.1602 14.7227 67.043 14.207C67.9336 13.6836 68.9922 13.4219 70.2188 13.4219C71.3906 13.4219 72.4141 13.6836 73.2891 14.207C74.1719 14.7305 74.8555 15.4883 75.3398 16.4805C75.832 17.4648 76.0781 18.6562 76.0781 20.0547ZM66.3047 20.0547C66.3047 21.0859 66.4414 21.9805 66.7148 22.7383C66.9883 23.4961 67.4102 24.082 67.9805 24.4961C68.5508 24.9102 69.2852 25.1172 70.1836 25.1172C71.0742 25.1172 71.8047 24.9102 72.375 24.4961C72.9531 24.082 73.3789 23.4961 73.6523 22.7383C73.9258 21.9805 74.0625 21.0859 74.0625 20.0547C74.0625 19.0312 73.9258 18.1484 73.6523 17.4062C73.3789 16.6562 72.957 16.0781 72.3867 15.6719C71.8164 15.2656 71.0781 15.0625 70.1719 15.0625C68.8359 15.0625 67.8555 15.5039 67.2305 16.3867C66.6133 17.2695 66.3047 18.4922 66.3047 20.0547ZM83.5898 25.1406C83.9102 25.1406 84.2383 25.1133 84.5742 25.0586C84.9102 25.0039 85.1836 24.9375 85.3945 24.8594V26.3711C85.168 26.4727 84.8516 26.5586 84.4453 26.6289C84.0469 26.6992 83.6562 26.7344 83.2734 26.7344C82.5938 26.7344 81.9766 26.6172 81.4219 26.3828C80.8672 26.1406 80.4219 25.7344 80.0859 25.1641C79.7578 24.5938 79.5938 23.8047 79.5938 22.7969V15.1797H77.7656V14.2305L79.6055 13.4688L80.3789 10.6797H81.5508V13.6562H85.3125V15.1797H81.5508V22.7383C81.5508 23.543 81.7344 24.1445 82.1016 24.543C82.4766 24.9414 82.9727 25.1406 83.5898 25.1406ZM96.3047 22.9844C96.3047 23.8047 96.0977 24.4961 95.6836 25.0586C95.2773 25.6133 94.6914 26.0312 93.9258 26.3125C93.168 26.5938 92.2617 26.7344 91.207 26.7344C90.3086 26.7344 89.5312 26.6641 88.875 26.5234C88.2188 26.3828 87.6445 26.1836 87.1523 25.9258V24.1328C87.6758 24.3906 88.3008 24.625 89.0273 24.8359C89.7539 25.0469 90.4961 25.1523 91.2539 25.1523C92.3633 25.1523 93.168 24.9727 93.668 24.6133C94.168 24.2539 94.418 23.7656 94.418 23.1484C94.418 22.7969 94.3164 22.4883 94.1133 22.2227C93.918 21.9492 93.5859 21.6875 93.1172 21.4375C92.6484 21.1797 92 20.8984 91.1719 20.5938C90.3516 20.2812 89.6406 19.9727 89.0391 19.668C88.4453 19.3555 87.9844 18.9766 87.6562 18.5312C87.3359 18.0859 87.1758 17.5078 87.1758 16.7969C87.1758 15.7109 87.6133 14.8789 88.4883 14.3008C89.3711 13.7148 90.5273 13.4219 91.957 13.4219C92.7305 13.4219 93.4531 13.5 94.125 13.6562C94.8047 13.8047 95.4375 14.0078 96.0234 14.2656L95.3672 15.8242C94.8359 15.5977 94.2695 15.4062 93.668 15.25C93.0664 15.0938 92.4531 15.0156 91.8281 15.0156C90.9297 15.0156 90.2383 15.1641 89.7539 15.4609C89.2773 15.7578 89.0391 16.1641 89.0391 16.6797C89.0391 17.0781 89.1484 17.4062 89.3672 17.6641C89.5938 17.9219 89.9531 18.1641 90.4453 18.3906C90.9375 18.6172 91.5859 18.8828 92.3906 19.1875C93.1953 19.4844 93.8906 19.793 94.4766 20.1133C95.0625 20.4258 95.5117 20.8086 95.8242 21.2617C96.1445 21.707 96.3047 22.2812 96.3047 22.9844ZM103.582 25.1406C103.902 25.1406 104.23 25.1133 104.566 25.0586C104.902 25.0039 105.176 24.9375 105.387 24.8594V26.3711C105.16 26.4727 104.844 26.5586 104.438 26.6289C104.039 26.6992 103.648 26.7344 103.266 26.7344C102.586 26.7344 101.969 26.6172 101.414 26.3828C100.859 26.1406 100.414 25.7344 100.078 25.1641C99.75 24.5938 99.5859 23.8047 99.5859 22.7969V15.1797H97.7578V14.2305L99.5977 13.4688L100.371 10.6797H101.543V13.6562H105.305V15.1797H101.543V22.7383C101.543 23.543 101.727 24.1445 102.094 24.543C102.469 24.9414 102.965 25.1406 103.582 25.1406ZM113.824 13.4219C114.082 13.4219 114.352 13.4375 114.633 13.4688C114.914 13.4922 115.164 13.5273 115.383 13.5742L115.137 15.3789C114.926 15.3242 114.691 15.2812 114.434 15.25C114.176 15.2188 113.934 15.2031 113.707 15.2031C113.191 15.2031 112.703 15.3086 112.242 15.5195C111.789 15.7227 111.391 16.0195 111.047 16.4102C110.703 16.793 110.434 17.2578 110.238 17.8047C110.043 18.3438 109.945 18.9453 109.945 19.6094V26.5H107.988V13.6562H109.605L109.816 16.0234H109.898C110.164 15.5469 110.484 15.1133 110.859 14.7227C111.234 14.3242 111.668 14.0078 112.16 13.7734C112.66 13.5391 113.215 13.4219 113.824 13.4219ZM122.613 13.4453C124.145 13.4453 125.281 13.7891 126.023 14.4766C126.766 15.1641 127.137 16.2617 127.137 17.7695V26.5H125.719L125.344 24.6016H125.25C124.891 25.0703 124.516 25.4648 124.125 25.7852C123.734 26.0977 123.281 26.3359 122.766 26.5C122.258 26.6562 121.633 26.7344 120.891 26.7344C120.109 26.7344 119.414 26.5977 118.805 26.3242C118.203 26.0508 117.727 25.6367 117.375 25.082C117.031 24.5273 116.859 23.8242 116.859 22.9727C116.859 21.6914 117.367 20.707 118.383 20.0195C119.398 19.332 120.945 18.957 123.023 18.8945L125.238 18.8008V18.0156C125.238 16.9062 125 16.1289 124.523 15.6836C124.047 15.2383 123.375 15.0156 122.508 15.0156C121.836 15.0156 121.195 15.1133 120.586 15.3086C119.977 15.5039 119.398 15.7344 118.852 16L118.254 14.5234C118.832 14.2266 119.496 13.9727 120.246 13.7617C120.996 13.5508 121.785 13.4453 122.613 13.4453ZM125.215 20.1719L123.258 20.2539C121.656 20.3164 120.527 20.5781 119.871 21.0391C119.215 21.5 118.887 22.1523 118.887 22.9961C118.887 23.7305 119.109 24.2734 119.555 24.625C120 24.9766 120.59 25.1523 121.324 25.1523C122.465 25.1523 123.398 24.8359 124.125 24.2031C124.852 23.5703 125.215 22.6211 125.215 21.3555V20.1719ZM137.18 13.4219C138.781 13.4219 140.059 13.9727 141.012 15.0742C141.965 16.1758 142.441 17.832 142.441 20.043C142.441 21.5039 142.223 22.7305 141.785 23.7227C141.348 24.7148 140.73 25.4648 139.934 25.9727C139.145 26.4805 138.211 26.7344 137.133 26.7344C136.453 26.7344 135.855 26.6445 135.34 26.4648C134.824 26.2852 134.383 26.043 134.016 25.7383C133.648 25.4336 133.344 25.1016 133.102 24.7422H132.961C132.984 25.0469 133.012 25.4141 133.043 25.8438C133.082 26.2734 133.102 26.6484 133.102 26.9688V32.2422H131.145V13.6562H132.75L133.008 15.5547H133.102C133.352 15.1641 133.656 14.8086 134.016 14.4883C134.375 14.1602 134.812 13.9023 135.328 13.7148C135.852 13.5195 136.469 13.4219 137.18 13.4219ZM136.84 15.0625C135.949 15.0625 135.23 15.2344 134.684 15.5781C134.145 15.9219 133.75 16.4375 133.5 17.125C133.25 17.8047 133.117 18.6602 133.102 19.6914V20.0664C133.102 21.1523 133.219 22.0703 133.453 22.8203C133.695 23.5703 134.09 24.1406 134.637 24.5312C135.191 24.9219 135.934 25.1172 136.863 25.1172C137.66 25.1172 138.324 24.9023 138.855 24.4727C139.387 24.043 139.781 23.4453 140.039 22.6797C140.305 21.9062 140.438 21.0195 140.438 20.0195C140.438 18.5039 140.141 17.3008 139.547 16.4102C138.961 15.5117 138.059 15.0625 136.84 15.0625Z" fill="#181b31"/>
</svg>
