<svg width="41" height="42" viewBox="0 0 41 42" fill="none" xmlns="http://www.w3.org/2000/svg">
<g clip-path="url(#clip0_7_16)">
<path d="M40.9824 26.7713C40.8647 25.8167 40.381 24.9887 39.541 24.3073C39.5305 24.2946 39.519 24.2828 39.5065 24.272L39.4641 24.2416L39.4505 24.232L39.0045 23.9117L38.9892 23.9005L38.9324 23.8604C38.9115 23.8483 38.8892 23.8389 38.8659 23.8324C37.4549 22.9924 35.1191 22.4038 31.5452 23.665C30.6923 22.23 30.5955 21.0801 31.1664 19.3184C31.2681 19.0117 31.1736 18.8091 30.8693 18.6778C30.2575 18.4175 29.4199 18.5505 28.8257 18.7074C28.5487 18.7795 28.3821 18.9364 28.3292 19.1743C27.9529 20.936 26.859 22.5456 25.8012 24.0991L25.7387 24.1904C25.0869 22.8082 25.2222 21.7376 25.6763 20.3963C25.7667 20.1288 25.6955 19.951 25.4448 19.8181C24.7449 19.4569 23.6951 19.7052 23.2771 19.8285C22.747 19.9831 22.1784 21.4157 21.5434 23.1309C21.3833 23.5625 21.2455 23.9317 21.1631 24.1039C20.9669 24.5043 20.7795 24.9607 20.5809 25.4452C20.1324 26.5415 19.6272 27.7755 18.9048 28.5506C18.6422 27.97 19.0554 27.0548 19.4566 26.1667C19.9314 25.1169 20.3799 24.1247 19.8634 23.4913C19.7817 23.3911 19.6804 23.3088 19.5657 23.2493C19.4509 23.1898 19.3252 23.1544 19.1963 23.1453C19.0281 23.1325 18.8593 23.16 18.7039 23.2254C18.7575 22.773 18.7599 22.4158 18.6278 21.9842C18.4388 21.3684 17.9479 21.0233 17.2721 21.0417C15.733 21.0865 14.4309 22.2333 13.6085 23.1878C13.0607 23.8284 11.8468 24.3169 10.7809 24.7453C10.3597 24.9239 9.95932 25.084 9.6254 25.2442C9.09288 24.7942 8.41622 24.3401 7.70352 23.8604C5.70157 22.5167 3.43295 20.9928 3.35448 18.9268C3.24237 15.8751 6.71776 13.7105 9.75112 12.1658C12.0502 10.9967 14.0489 10.2215 15.8619 9.79793C18.4084 9.20295 20.5593 9.32306 22.2537 10.1535C23.181 10.6075 23.615 11.5949 23.3396 12.6103C22.6189 15.2488 19.6328 17.057 17.0791 17.8706C15.5408 18.3607 14.2315 18.5657 13.0752 18.4984C11.6257 18.4143 10.4422 17.6872 9.9361 17.3773C9.85502 17.3219 9.76928 17.2737 9.67985 17.2332L9.65663 17.2276C9.6108 17.2162 9.56272 17.2176 9.51765 17.2317C9.47259 17.2459 9.43229 17.2721 9.40118 17.3076C9.29708 17.4318 9.33391 17.628 9.37155 17.7273C9.86403 19.0141 10.881 19.8269 12.3937 20.1432C12.8888 20.2424 13.3927 20.2904 13.8976 20.2866C17.4378 20.2866 21.955 18.2454 23.6142 16.5645C24.7457 15.4194 25.5698 14.2423 25.9109 12.2123C26.2672 10.0862 24.8258 8.60877 23.3572 7.9281C19.7881 6.2809 15.7346 6.93193 12.9622 7.76795C9.71909 8.7457 6.36381 10.5234 3.75807 12.6471C0.545338 15.2633 -0.615795 17.692 0.305103 19.8742C1.25083 22.1107 3.55708 23.5097 5.78725 24.863C6.50795 25.2994 7.19342 25.715 7.81083 26.1443C7.62504 26.2348 7.43526 26.3268 7.24227 26.4189C5.37004 27.3262 3.24637 28.3472 2.06842 30.0345C1.21319 31.2637 1.05303 32.4873 1.59276 33.6716C1.88104 34.3018 2.39354 34.7294 3.10543 34.9424C3.47576 35.0474 3.85927 35.0983 4.24415 35.0938C5.6303 35.0938 7.15579 34.5332 7.9862 34.0151C9.45323 33.0942 10.4038 31.8578 10.8122 30.3404C11.1757 28.9902 11.0884 27.6489 10.5599 26.4518L12.3577 25.5453C11.4904 28.4281 12.1551 30.1498 12.8854 31.0995C13.1544 31.4494 13.6397 31.66 14.1818 31.6697C14.724 31.6793 15.2229 31.4751 15.5047 31.1275C16.038 30.4669 16.432 29.6941 16.7948 28.9214C16.7756 29.4259 16.7996 29.9368 16.9718 30.37C17.1263 30.76 17.381 31.0186 17.7093 31.1179C18.0584 31.2244 18.4676 31.1347 18.8616 30.8657C20.6369 29.6509 21.8509 26.7352 22.8263 24.3914C22.9648 24.0582 23.0977 23.7379 23.2267 23.4384C23.468 24.302 23.8037 25.1364 24.2276 25.9265C24.3221 26.0978 24.3141 26.1731 24.186 26.314C23.993 26.5254 23.724 26.7809 23.4389 27.0516C22.5756 27.8708 21.501 28.8933 21.3568 29.7926C21.3008 30.153 21.549 30.4813 21.9342 30.5558C23.0929 30.7864 24.4887 30.4493 25.669 29.6549C26.7421 28.9342 27.1457 27.9292 26.8702 26.6768C26.6036 25.4708 27.2122 23.9733 28.6792 22.2228C28.9194 23.2262 29.2397 24.0374 29.6818 24.7477L29.6698 24.7573C28.6015 25.6902 27.1377 26.9675 27.3651 28.517C27.3842 28.6643 27.4338 28.8061 27.5107 28.9332C27.5876 29.0604 27.6902 29.17 27.8119 29.2553C27.942 29.3431 28.0888 29.4031 28.2431 29.4315C28.3975 29.4599 28.556 29.456 28.7088 29.4203C30.1078 29.1264 31.1608 28.5346 31.9264 27.6129C32.6919 26.6912 32.4124 25.6694 32.1546 24.8766C34.1565 24.3337 35.9391 24.3473 37.6079 24.9167C38.5448 25.237 39.2167 25.7631 39.6042 26.4894C40.0919 27.4031 39.8285 28.2463 38.8603 28.8637C38.5632 29.0535 38.4199 29.1696 38.4111 29.3162C38.4091 29.3502 38.4154 29.3841 38.4293 29.4152C38.4432 29.4463 38.4645 29.4736 38.4912 29.4947C38.6033 29.5868 38.9492 29.747 39.7316 29.2545C40.4523 28.8021 40.8751 28.1863 40.9832 27.4127C41.0049 27.1994 41.0047 26.9845 40.9824 26.7713ZM8.97276 28.778L8.96475 28.8805C8.83983 30.0529 8.24405 31.0747 7.19102 31.9235C6.52958 32.4568 5.81127 32.7843 5.16905 32.8468C4.72061 32.89 4.39469 32.8292 4.2009 32.665C4.05596 32.5425 3.97829 32.3591 3.96067 32.1045C3.82934 30.0641 7.02926 28.0365 8.83022 27.3695C8.95875 27.8272 9.00698 28.3038 8.97276 28.778ZM17.1688 23.0236C16.8725 24.7125 16.0084 27.9004 14.6503 29.1376C14.5854 29.1968 14.531 29.2177 14.5062 29.2121C14.4813 29.2065 14.4621 29.1768 14.4421 29.132C13.9889 28.0814 14.1562 26.3068 14.8425 24.9127C15.3702 23.838 16.1237 23.1261 16.9662 22.9107C17.0011 22.9011 17.0372 22.896 17.0735 22.8955C17.1018 22.8935 17.13 22.9011 17.1535 22.9171C17.1635 22.9328 17.1699 22.9504 17.1726 22.9687C17.1752 22.9871 17.1739 23.0058 17.1688 23.0236ZM23.8545 29.18C23.599 29.4467 23.2491 29.4107 23.3316 29.313L24.632 27.9324C24.5271 28.4073 24.2172 28.8005 23.8545 29.18ZM29.2493 27.9861C29.1257 28.047 28.9919 28.0847 28.8546 28.0974C28.8177 27.3711 29.5216 26.5535 30.2159 26.0081C30.4025 26.7657 30.0205 27.5665 29.2493 27.9861Z" fill="black"/>
</g>
<defs>
<clipPath id="clip0_7_16">
<rect width="41" height="41" fill="white" transform="translate(0 0.5)"/>
</clipPath>
</defs>
</svg>
