<svg width="168" height="34" viewBox="0 0 168 34" fill="none" xmlns="http://www.w3.org/2000/svg">
<path d="M41.0117 21.9414C41.0117 22.957 40.7578 23.8242 40.25 24.543C39.75 25.2539 39.0469 25.7969 38.1406 26.1719C37.2344 26.5469 36.168 26.7344 34.9414 26.7344C34.293 26.7344 33.6797 26.7031 33.1016 26.6406C32.5234 26.5781 31.9922 26.4883 31.5078 26.3711C31.0234 26.2539 30.5977 26.1094 30.2305 25.9375V24.0273C30.8164 24.2695 31.5312 24.4961 32.375 24.707C33.2188 24.9102 34.1016 25.0117 35.0234 25.0117C35.8828 25.0117 36.6094 24.8984 37.2031 24.6719C37.7969 24.4375 38.2461 24.1055 38.5508 23.6758C38.8633 23.2383 39.0195 22.7148 39.0195 22.1055C39.0195 21.5195 38.8906 21.0312 38.6328 20.6406C38.375 20.2422 37.9453 19.8828 37.3438 19.5625C36.75 19.2344 35.9375 18.8867 34.9062 18.5195C34.1797 18.2617 33.5391 17.9805 32.9844 17.6758C32.4297 17.3633 31.9648 17.0117 31.5898 16.6211C31.2148 16.2305 30.9297 15.7773 30.7344 15.2617C30.5469 14.7461 30.4531 14.1562 30.4531 13.4922C30.4531 12.5781 30.6836 11.7969 31.1445 11.1484C31.6133 10.4922 32.2578 9.99219 33.0781 9.64844C33.9062 9.29688 34.8555 9.12109 35.9258 9.12109C36.8398 9.12109 37.6836 9.20703 38.457 9.37891C39.2383 9.55078 39.9531 9.78125 40.6016 10.0703L39.9805 11.7812C39.3633 11.5234 38.707 11.3086 38.0117 11.1367C37.3242 10.9648 36.6133 10.8789 35.8789 10.8789C35.1445 10.8789 34.5234 10.9883 34.0156 11.207C33.5156 11.418 33.1328 11.7188 32.8672 12.1094C32.6016 12.5 32.4688 12.9648 32.4688 13.5039C32.4688 14.1055 32.5938 14.6055 32.8438 15.0039C33.1016 15.4023 33.5078 15.7578 34.0625 16.0703C34.625 16.375 35.3672 16.6953 36.2891 17.0312C37.2969 17.3984 38.1523 17.7891 38.8555 18.2031C39.5586 18.6094 40.0938 19.1094 40.4609 19.7031C40.8281 20.2891 41.0117 21.0352 41.0117 21.9414ZM50.2578 13.4219C51.8594 13.4219 53.1367 13.9727 54.0898 15.0742C55.043 16.1758 55.5195 17.832 55.5195 20.043C55.5195 21.5039 55.3008 22.7305 54.8633 23.7227C54.4258 24.7148 53.8086 25.4648 53.0117 25.9727C52.2227 26.4805 51.2891 26.7344 50.2109 26.7344C49.5312 26.7344 48.9336 26.6445 48.418 26.4648C47.9023 26.2852 47.4609 26.043 47.0938 25.7383C46.7266 25.4336 46.4219 25.1016 46.1797 24.7422H46.0391C46.0625 25.0469 46.0898 25.4141 46.1211 25.8438C46.1602 26.2734 46.1797 26.6484 46.1797 26.9688V32.2422H44.2227V13.6562H45.8281L46.0859 15.5547H46.1797C46.4297 15.1641 46.7344 14.8086 47.0938 14.4883C47.4531 14.1602 47.8906 13.9023 48.4062 13.7148C48.9297 13.5195 49.5469 13.4219 50.2578 13.4219ZM49.918 15.0625C49.0273 15.0625 48.3086 15.2344 47.7617 15.5781C47.2227 15.9219 46.8281 16.4375 46.5781 17.125C46.3281 17.8047 46.1953 18.6602 46.1797 19.6914V20.0664C46.1797 21.1523 46.2969 22.0703 46.5312 22.8203C46.7734 23.5703 47.168 24.1406 47.7148 24.5312C48.2695 24.9219 49.0117 25.1172 49.9414 25.1172C50.7383 25.1172 51.4023 24.9023 51.9336 24.4727C52.4648 24.043 52.8594 23.4453 53.1172 22.6797C53.3828 21.9062 53.5156 21.0195 53.5156 20.0195C53.5156 18.5039 53.2188 17.3008 52.625 16.4102C52.0391 15.5117 51.1367 15.0625 49.918 15.0625ZM64.7539 13.4219C65.0117 13.4219 65.2812 13.4375 65.5625 13.4688C65.8438 13.4922 66.0938 13.5273 66.3125 13.5742L66.0664 15.3789C65.8555 15.3242 65.6211 15.2812 65.3633 15.25C65.1055 15.2188 64.8633 15.2031 64.6367 15.2031C64.1211 15.2031 63.6328 15.3086 63.1719 15.5195C62.7188 15.7227 62.3203 16.0195 61.9766 16.4102C61.6328 16.793 61.3633 17.2578 61.168 17.8047C60.9727 18.3438 60.875 18.9453 60.875 19.6094V26.5H58.918V13.6562H60.5352L60.7461 16.0234H60.8281C61.0938 15.5469 61.4141 15.1133 61.7891 14.7227C62.1641 14.3242 62.5977 14.0078 63.0898 13.7734C63.5898 13.5391 64.1445 13.4219 64.7539 13.4219ZM70.6836 13.6562V26.5H68.7383V13.6562H70.6836ZM69.7344 8.85156C70.0547 8.85156 70.3281 8.95703 70.5547 9.16797C70.7891 9.37109 70.9062 9.69141 70.9062 10.1289C70.9062 10.5586 70.7891 10.8789 70.5547 11.0898C70.3281 11.3008 70.0547 11.4062 69.7344 11.4062C69.3984 11.4062 69.1172 11.3008 68.8906 11.0898C68.6719 10.8789 68.5625 10.5586 68.5625 10.1289C68.5625 9.69141 68.6719 9.37109 68.8906 9.16797C69.1172 8.95703 69.3984 8.85156 69.7344 8.85156ZM80.8906 13.4219C82.4141 13.4219 83.5664 13.7969 84.3477 14.5469C85.1289 15.2891 85.5195 16.4844 85.5195 18.1328V26.5H83.5977V18.2617C83.5977 17.1914 83.3516 16.3906 82.8594 15.8594C82.375 15.3281 81.6289 15.0625 80.6211 15.0625C79.1992 15.0625 78.1992 15.4648 77.6211 16.2695C77.043 17.0742 76.7539 18.2422 76.7539 19.7734V26.5H74.8086V13.6562H76.3789L76.6719 15.5078H76.7773C77.0508 15.0547 77.3984 14.6758 77.8203 14.3711C78.2422 14.0586 78.7148 13.8242 79.2383 13.668C79.7617 13.5039 80.3125 13.4219 80.8906 13.4219ZM93.1133 32.2656C91.4258 32.2656 90.125 31.9492 89.2109 31.3164C88.2969 30.6914 87.8398 29.8125 87.8398 28.6797C87.8398 27.875 88.0938 27.1875 88.6016 26.6172C89.1172 26.0469 89.8281 25.668 90.7344 25.4805C90.3984 25.3242 90.1094 25.0898 89.8672 24.7773C89.6328 24.4648 89.5156 24.1055 89.5156 23.6992C89.5156 23.2305 89.6445 22.8203 89.9023 22.4688C90.168 22.1094 90.5703 21.7656 91.1094 21.4375C90.4375 21.1641 89.8906 20.7031 89.4688 20.0547C89.0547 19.3984 88.8477 18.6367 88.8477 17.7695C88.8477 16.8477 89.0391 16.0625 89.4219 15.4141C89.8047 14.7578 90.3594 14.2578 91.0859 13.9141C91.8125 13.5703 92.6914 13.3984 93.7227 13.3984C93.9492 13.3984 94.1758 13.4102 94.4023 13.4336C94.6367 13.4492 94.8594 13.4766 95.0703 13.5156C95.2812 13.5469 95.4648 13.5859 95.6211 13.6328H100.027V14.8867L97.6602 15.1797C97.8945 15.4844 98.0898 15.8516 98.2461 16.2812C98.4023 16.7109 98.4805 17.1875 98.4805 17.7109C98.4805 18.9922 98.0469 20.0117 97.1797 20.7695C96.3125 21.5195 95.1211 21.8945 93.6055 21.8945C93.2461 21.8945 92.8789 21.8633 92.5039 21.8008C92.1211 22.0117 91.8281 22.2461 91.625 22.5039C91.4297 22.7617 91.332 23.0586 91.332 23.3945C91.332 23.6445 91.4062 23.8438 91.5547 23.9922C91.7109 24.1406 91.9336 24.25 92.2227 24.3203C92.5117 24.3828 92.8594 24.4141 93.2656 24.4141H95.5273C96.9258 24.4141 97.9961 24.707 98.7383 25.293C99.4883 25.8789 99.8633 26.7344 99.8633 27.8594C99.8633 29.2812 99.2852 30.3711 98.1289 31.1289C96.9727 31.8867 95.3008 32.2656 93.1133 32.2656ZM93.1719 30.7422C94.2344 30.7422 95.1133 30.6328 95.8086 30.4141C96.5117 30.2031 97.0352 29.8945 97.3789 29.4883C97.7305 29.0898 97.9062 28.6133 97.9062 28.0586C97.9062 27.543 97.7891 27.1523 97.5547 26.8867C97.3203 26.6289 96.9766 26.457 96.5234 26.3711C96.0703 26.2773 95.5156 26.2305 94.8594 26.2305H92.6328C92.0547 26.2305 91.5508 26.3203 91.1211 26.5C90.6914 26.6797 90.3594 26.9453 90.125 27.2969C89.8984 27.6484 89.7852 28.0859 89.7852 28.6094C89.7852 29.3047 90.0781 29.832 90.6641 30.1914C91.25 30.5586 92.0859 30.7422 93.1719 30.7422ZM93.6758 20.4766C94.6055 20.4766 95.3047 20.2422 95.7734 19.7734C96.2422 19.3047 96.4766 18.6211 96.4766 17.7227C96.4766 16.7617 96.2383 16.043 95.7617 15.5664C95.2852 15.082 94.582 14.8398 93.6523 14.8398C92.7617 14.8398 92.0742 15.0898 91.5898 15.5898C91.1133 16.082 90.875 16.8047 90.875 17.7578C90.875 18.6328 91.1172 19.3047 91.6016 19.7734C92.0859 20.2422 92.7773 20.4766 93.6758 20.4766ZM109.086 9.36719H113.938C116.078 9.36719 117.688 9.6875 118.766 10.3281C119.844 10.9688 120.383 12.0586 120.383 13.5977C120.383 14.2617 120.254 14.8594 119.996 15.3906C119.746 15.9141 119.379 16.3477 118.895 16.6914C118.41 17.0352 117.812 17.2734 117.102 17.4062V17.5234C117.852 17.6406 118.516 17.8555 119.094 18.168C119.672 18.4805 120.125 18.918 120.453 19.4805C120.781 20.043 120.945 20.7578 120.945 21.625C120.945 22.6797 120.699 23.5703 120.207 24.2969C119.723 25.0234 119.035 25.5742 118.145 25.9492C117.254 26.3164 116.199 26.5 114.98 26.5H109.086V9.36719ZM111.078 16.7148H114.359C115.852 16.7148 116.883 16.4688 117.453 15.9766C118.031 15.4844 118.32 14.7656 118.32 13.8203C118.32 12.8438 117.977 12.1406 117.289 11.7109C116.609 11.2812 115.523 11.0664 114.031 11.0664H111.078V16.7148ZM111.078 18.3906V24.8008H114.641C116.164 24.8008 117.242 24.5039 117.875 23.9102C118.508 23.3086 118.824 22.5 118.824 21.4844C118.824 20.8359 118.68 20.2812 118.391 19.8203C118.109 19.3594 117.648 19.0078 117.008 18.7656C116.375 18.5156 115.527 18.3906 114.465 18.3906H111.078ZM135.383 20.0547C135.383 21.1094 135.246 22.0508 134.973 22.8789C134.699 23.707 134.305 24.4062 133.789 24.9766C133.273 25.5469 132.648 25.9844 131.914 26.2891C131.188 26.5859 130.363 26.7344 129.441 26.7344C128.582 26.7344 127.793 26.5859 127.074 26.2891C126.363 25.9844 125.746 25.5469 125.223 24.9766C124.707 24.4062 124.305 23.707 124.016 22.8789C123.734 22.0508 123.594 21.1094 123.594 20.0547C123.594 18.6484 123.832 17.4531 124.309 16.4688C124.785 15.4766 125.465 14.7227 126.348 14.207C127.238 13.6836 128.297 13.4219 129.523 13.4219C130.695 13.4219 131.719 13.6836 132.594 14.207C133.477 14.7305 134.16 15.4883 134.645 16.4805C135.137 17.4648 135.383 18.6562 135.383 20.0547ZM125.609 20.0547C125.609 21.0859 125.746 21.9805 126.02 22.7383C126.293 23.4961 126.715 24.082 127.285 24.4961C127.855 24.9102 128.59 25.1172 129.488 25.1172C130.379 25.1172 131.109 24.9102 131.68 24.4961C132.258 24.082 132.684 23.4961 132.957 22.7383C133.23 21.9805 133.367 21.0859 133.367 20.0547C133.367 19.0312 133.23 18.1484 132.957 17.4062C132.684 16.6562 132.262 16.0781 131.691 15.6719C131.121 15.2656 130.383 15.0625 129.477 15.0625C128.141 15.0625 127.16 15.5039 126.535 16.3867C125.918 17.2695 125.609 18.4922 125.609 20.0547ZM149.82 20.0547C149.82 21.1094 149.684 22.0508 149.41 22.8789C149.137 23.707 148.742 24.4062 148.227 24.9766C147.711 25.5469 147.086 25.9844 146.352 26.2891C145.625 26.5859 144.801 26.7344 143.879 26.7344C143.02 26.7344 142.23 26.5859 141.512 26.2891C140.801 25.9844 140.184 25.5469 139.66 24.9766C139.145 24.4062 138.742 23.707 138.453 22.8789C138.172 22.0508 138.031 21.1094 138.031 20.0547C138.031 18.6484 138.27 17.4531 138.746 16.4688C139.223 15.4766 139.902 14.7227 140.785 14.207C141.676 13.6836 142.734 13.4219 143.961 13.4219C145.133 13.4219 146.156 13.6836 147.031 14.207C147.914 14.7305 148.598 15.4883 149.082 16.4805C149.574 17.4648 149.82 18.6562 149.82 20.0547ZM140.047 20.0547C140.047 21.0859 140.184 21.9805 140.457 22.7383C140.73 23.4961 141.152 24.082 141.723 24.4961C142.293 24.9102 143.027 25.1172 143.926 25.1172C144.816 25.1172 145.547 24.9102 146.117 24.4961C146.695 24.082 147.121 23.4961 147.395 22.7383C147.668 21.9805 147.805 21.0859 147.805 20.0547C147.805 19.0312 147.668 18.1484 147.395 17.4062C147.121 16.6562 146.699 16.0781 146.129 15.6719C145.559 15.2656 144.82 15.0625 143.914 15.0625C142.578 15.0625 141.598 15.5039 140.973 16.3867C140.355 17.2695 140.047 18.4922 140.047 20.0547ZM157.332 25.1406C157.652 25.1406 157.98 25.1133 158.316 25.0586C158.652 25.0039 158.926 24.9375 159.137 24.8594V26.3711C158.91 26.4727 158.594 26.5586 158.188 26.6289C157.789 26.6992 157.398 26.7344 157.016 26.7344C156.336 26.7344 155.719 26.6172 155.164 26.3828C154.609 26.1406 154.164 25.7344 153.828 25.1641C153.5 24.5938 153.336 23.8047 153.336 22.7969V15.1797H151.508V14.2305L153.348 13.4688L154.121 10.6797H155.293V13.6562H159.055V15.1797H155.293V22.7383C155.293 23.543 155.477 24.1445 155.844 24.543C156.219 24.9414 156.715 25.1406 157.332 25.1406Z" fill="black"/>
<g clip-path="url(#clip0_7_21)">
<path d="M19.9965 22.3111C17.2845 25.9237 11.4937 24.7045 7.78002 24.8792C7.78002 24.8792 7.12207 24.9165 6.46083 25.0252C6.46083 25.0252 6.71127 24.9187 7.0309 24.8078C9.63852 23.906 10.8709 23.7247 12.4559 22.9108C15.4326 21.3862 18.3961 18.0635 18.9991 14.6123C17.8656 17.9317 14.4188 20.7887 11.2806 21.9486C9.13325 22.7417 5.24819 23.5127 5.24709 23.5127C5.19431 23.4857 5.14195 23.4579 5.09002 23.4293C2.44835 22.1441 2.37146 16.4214 7.1704 14.5772C9.27495 13.7688 11.2861 14.2125 13.5609 13.671C15.9862 13.0943 18.7959 11.2765 19.9372 8.89953C21.2168 12.6978 22.7546 18.638 19.9965 22.3111ZM20.0426 7.72423C19.7358 8.45989 19.3432 9.15671 18.8728 9.80022C17.8504 8.74646 16.6268 7.90878 15.2745 7.33688C13.9222 6.76499 12.4688 6.47052 11.0005 6.47095C4.93405 6.47095 1.20197e-06 11.405 1.20197e-06 17.4704C-0.000707165 18.9834 0.311691 20.4801 0.917545 21.8665C1.5234 23.2529 2.4096 24.4989 3.5204 25.5261L3.76205 25.7392C3.58591 25.5628 3.48705 25.3236 3.48721 25.0743C3.48736 24.825 3.58651 24.586 3.76287 24.4098C3.93922 24.2336 4.17834 24.1346 4.42764 24.1347C4.67693 24.1347 4.91601 24.2338 5.09229 24.4101C5.26857 24.5863 5.36763 24.8254 5.36768 25.0747C5.36773 25.324 5.26877 25.5631 5.09256 25.7395C4.91636 25.9158 4.67732 26.015 4.42802 26.0151C4.17872 26.0153 3.93957 25.9164 3.76314 25.7403L3.92681 25.8853C5.90438 27.5572 8.41093 28.4734 11.0005 28.4709C16.7979 28.4709 21.5595 23.9587 21.967 18.2645C22.268 15.4757 21.4442 11.9344 20.0426 7.72423Z" fill="black"/>
</g>
<defs>
<clipPath id="clip0_7_21">
<rect width="23" height="23" fill="white" transform="translate(0 5.5)"/>
</clipPath>
</defs>
</svg>
