<svg width="154" height="30" viewBox="0 0 154 30" fill="none" xmlns="http://www.w3.org/2000/svg">
<g clip-path="url(#clip0_7_42)">
<path fill-rule="evenodd" clip-rule="evenodd" d="M0.5 0.5H25.5V25.5H0.5V0.5ZM17.1667 10.5C15.3257 10.5 13.8333 11.9924 13.8333 13.8333C13.8333 15.6743 15.3257 17.1667 17.1667 17.1667H18.8333C19.7538 17.1667 20.5 17.9128 20.5 18.8333C20.5 19.7538 19.7538 20.5 18.8333 20.5H17.1667C16.2462 20.5 15.5 19.7538 15.5 18.8333H13.8333C13.8333 20.6743 15.3257 22.1667 17.1667 22.1667H18.8333C20.6743 22.1667 22.1667 20.6743 22.1667 18.8333C22.1667 16.9924 20.6743 15.5 18.8333 15.5H17.1667C16.2462 15.5 15.5 14.7538 15.5 13.8333C15.5 12.9129 16.2462 12.1667 17.1667 12.1667H19.1112C19.8782 12.1667 20.5 12.7885 20.5 13.5555V13.8333H22.1667V13.5555C22.1667 11.868 20.7987 10.5 19.1112 10.5H17.1667ZM5.5 10.5H13.8333V12.1667H10.5V22.1667H8.83333V12.1667H5.5V10.5Z" fill="black"/>
</g>
<path d="M34.6591 7.92045V6.04545H47.75V7.92045H42.2614V23.5H40.1477V7.92045H34.6591ZM50.5348 28.4091C50.1939 28.4091 49.8899 28.3807 49.6229 28.3239C49.3558 28.2727 49.1712 28.2216 49.0689 28.1705L49.5803 26.3977C50.0689 26.5227 50.5007 26.5682 50.8757 26.5341C51.2507 26.5 51.5831 26.3324 51.8729 26.0312C52.1683 25.7358 52.4382 25.2557 52.6825 24.5909L53.0575 23.5682L48.2166 10.4091H50.3984L54.0121 20.8409H54.1484L57.7621 10.4091H59.9439L54.3871 25.4091C54.1371 26.0852 53.8274 26.6449 53.4581 27.0881C53.0888 27.5369 52.6598 27.8693 52.1712 28.0852C51.6882 28.3011 51.1428 28.4091 50.5348 28.4091ZM62.5987 28.4091V10.4091H64.5419V12.4886H64.7805C64.9283 12.2614 65.1328 11.9716 65.3942 11.6193C65.6612 11.2614 66.0419 10.9432 66.5362 10.6648C67.0362 10.3807 67.7124 10.2386 68.5646 10.2386C69.6669 10.2386 70.6385 10.5142 71.4794 11.0653C72.3203 11.6165 72.9766 12.3977 73.4482 13.4091C73.9197 14.4205 74.1555 15.6136 74.1555 16.9886C74.1555 18.375 73.9197 19.5767 73.4482 20.5938C72.9766 21.6051 72.3232 22.3892 71.4879 22.946C70.6527 23.4972 69.6896 23.7727 68.5987 23.7727C67.7578 23.7727 67.0845 23.6335 66.5788 23.3551C66.0732 23.071 65.6839 22.75 65.4112 22.392C65.1385 22.0284 64.9283 21.7273 64.7805 21.4886H64.6101V28.4091H62.5987ZM64.576 16.9545C64.576 17.9432 64.7209 18.8153 65.0107 19.571C65.3004 20.321 65.7237 20.9091 66.2805 21.3352C66.8374 21.7557 67.5192 21.9659 68.326 21.9659C69.1669 21.9659 69.8686 21.7443 70.4311 21.3011C70.9993 20.8523 71.4254 20.25 71.7095 19.4943C71.9993 18.733 72.1442 17.8864 72.1442 16.9545C72.1442 16.0341 72.0021 15.2045 71.718 14.4659C71.4396 13.7216 71.0163 13.1335 70.4482 12.7017C69.8857 12.2642 69.1783 12.0455 68.326 12.0455C67.5078 12.0455 66.8203 12.2528 66.2635 12.6676C65.7067 13.0767 65.2862 13.6506 65.0021 14.3892C64.718 15.1222 64.576 15.9773 64.576 16.9545ZM82.7124 23.7727C81.451 23.7727 80.3629 23.4943 79.4482 22.9375C78.5391 22.375 77.8374 21.5909 77.343 20.5852C76.8544 19.5739 76.6101 18.3977 76.6101 17.0568C76.6101 15.7159 76.8544 14.5341 77.343 13.5114C77.8374 12.483 78.5249 11.6818 79.4055 11.108C80.2919 10.5284 81.326 10.2386 82.5078 10.2386C83.1896 10.2386 83.8629 10.3523 84.5277 10.5795C85.1925 10.8068 85.7976 11.1761 86.343 11.6875C86.8885 12.1932 87.3232 12.8636 87.647 13.6989C87.9709 14.5341 88.1328 15.5625 88.1328 16.7841V17.6364H78.0419V15.8977H86.0874C86.0874 15.1591 85.9396 14.5 85.6442 13.9205C85.3544 13.3409 84.9396 12.8835 84.3999 12.5483C83.8658 12.2131 83.2351 12.0455 82.5078 12.0455C81.7067 12.0455 81.0135 12.2443 80.4283 12.642C79.8487 13.0341 79.4027 13.5455 79.0902 14.1761C78.7777 14.8068 78.6214 15.483 78.6214 16.2045V17.3636C78.6214 18.3523 78.7919 19.1903 79.1328 19.8778C79.4794 20.5597 79.9595 21.0795 80.5732 21.4375C81.1868 21.7898 81.8999 21.9659 82.7124 21.9659C83.2408 21.9659 83.718 21.892 84.1442 21.7443C84.576 21.5909 84.9482 21.3636 85.2607 21.0625C85.5732 20.7557 85.8146 20.375 85.9851 19.9205L87.9283 20.4659C87.7237 21.125 87.38 21.7045 86.897 22.2045C86.4141 22.6989 85.8175 23.0852 85.1072 23.3636C84.397 23.6364 83.5987 23.7727 82.7124 23.7727ZM100.465 13.3409L98.6584 13.8523C98.5447 13.5511 98.3771 13.2585 98.1555 12.9744C97.9396 12.6847 97.6442 12.446 97.2692 12.2585C96.8942 12.071 96.4141 11.9773 95.8288 11.9773C95.0277 11.9773 94.3601 12.1619 93.826 12.5312C93.2976 12.8949 93.0334 13.358 93.0334 13.9205C93.0334 14.4205 93.2152 14.8153 93.5788 15.1051C93.9425 15.3949 94.5107 15.6364 95.2834 15.8295L97.2266 16.3068C98.397 16.5909 99.2692 17.0256 99.843 17.6108C100.417 18.1903 100.704 18.9375 100.704 19.8523C100.704 20.6023 100.488 21.2727 100.056 21.8636C99.63 22.4545 99.0334 22.9205 98.2663 23.2614C97.4993 23.6023 96.6072 23.7727 95.5902 23.7727C94.255 23.7727 93.1499 23.483 92.2749 22.9034C91.3999 22.3239 90.8459 21.4773 90.6129 20.3636L92.522 19.8864C92.7038 20.5909 93.0476 21.1193 93.5533 21.4716C94.0646 21.8239 94.7322 22 95.5561 22C96.4936 22 97.2379 21.8011 97.7891 21.4034C98.3459 21 98.6243 20.517 98.6243 19.9545C98.6243 19.5 98.4652 19.1193 98.147 18.8125C97.8288 18.5 97.3402 18.267 96.6811 18.1136L94.4993 17.6023C93.3004 17.3182 92.4197 16.8778 91.8572 16.2812C91.3004 15.679 91.022 14.9261 91.022 14.0227C91.022 13.2841 91.2294 12.6307 91.6442 12.0625C92.0646 11.4943 92.6357 11.0483 93.3572 10.7244C94.0845 10.4006 94.9084 10.2386 95.8288 10.2386C97.1243 10.2386 98.1413 10.5227 98.88 11.0909C99.6243 11.6591 100.153 12.4091 100.465 13.3409ZM109.05 23.7727C107.822 23.7727 106.766 23.483 105.879 22.9034C104.993 22.3239 104.311 21.5256 103.834 20.5085C103.357 19.4915 103.118 18.3295 103.118 17.0227C103.118 15.6932 103.362 14.5199 103.851 13.5028C104.345 12.4801 105.033 11.6818 105.913 11.108C106.8 10.5284 107.834 10.2386 109.016 10.2386C109.936 10.2386 110.766 10.4091 111.504 10.75C112.243 11.0909 112.848 11.5682 113.32 12.1818C113.791 12.7955 114.084 13.5114 114.197 14.3295H112.186C112.033 13.733 111.692 13.2045 111.163 12.7443C110.641 12.2784 109.936 12.0455 109.05 12.0455C108.266 12.0455 107.578 12.25 106.987 12.6591C106.402 13.0625 105.945 13.6335 105.615 14.3722C105.291 15.1051 105.129 15.9659 105.129 16.9545C105.129 17.9659 105.288 18.8466 105.607 19.5966C105.93 20.3466 106.385 20.929 106.97 21.3438C107.561 21.7585 108.254 21.9659 109.05 21.9659C109.572 21.9659 110.047 21.875 110.473 21.6932C110.899 21.5114 111.26 21.25 111.555 20.9091C111.851 20.5682 112.061 20.1591 112.186 19.6818H114.197C114.084 20.4545 113.803 21.1506 113.354 21.7699C112.911 22.3835 112.322 22.8722 111.589 23.2358C110.862 23.5938 110.016 23.7727 109.05 23.7727ZM117.138 23.5V10.4091H119.081V12.3864H119.217C119.456 11.7386 119.888 11.2131 120.513 10.8097C121.138 10.4062 121.842 10.2045 122.626 10.2045C122.774 10.2045 122.959 10.2074 123.18 10.2131C123.402 10.2187 123.57 10.2273 123.683 10.2386V12.2841C123.615 12.267 123.459 12.2415 123.214 12.2074C122.976 12.1676 122.723 12.1477 122.456 12.1477C121.82 12.1477 121.251 12.2812 120.751 12.5483C120.257 12.8097 119.865 13.1733 119.575 13.6392C119.291 14.0994 119.149 14.625 119.149 15.2159V23.5H117.138ZM126.067 23.5V10.4091H128.079V23.5H126.067ZM127.09 8.22727C126.698 8.22727 126.36 8.09375 126.076 7.8267C125.798 7.55966 125.658 7.23864 125.658 6.86364C125.658 6.48864 125.798 6.16761 126.076 5.90057C126.36 5.63352 126.698 5.5 127.09 5.5C127.482 5.5 127.817 5.63352 128.096 5.90057C128.38 6.16761 128.522 6.48864 128.522 6.86364C128.522 7.23864 128.38 7.55966 128.096 7.8267C127.817 8.09375 127.482 8.22727 127.09 8.22727ZM131.763 28.4091V10.4091H133.706V12.4886H133.945C134.092 12.2614 134.297 11.9716 134.558 11.6193C134.825 11.2614 135.206 10.9432 135.7 10.6648C136.2 10.3807 136.876 10.2386 137.729 10.2386C138.831 10.2386 139.803 10.5142 140.643 11.0653C141.484 11.6165 142.141 12.3977 142.612 13.4091C143.084 14.4205 143.32 15.6136 143.32 16.9886C143.32 18.375 143.084 19.5767 142.612 20.5938C142.141 21.6051 141.487 22.3892 140.652 22.946C139.817 23.4972 138.854 23.7727 137.763 23.7727C136.922 23.7727 136.249 23.6335 135.743 23.3551C135.237 23.071 134.848 22.75 134.575 22.392C134.303 22.0284 134.092 21.7273 133.945 21.4886H133.774V28.4091H131.763ZM133.74 16.9545C133.74 17.9432 133.885 18.8153 134.175 19.571C134.464 20.321 134.888 20.9091 135.445 21.3352C136.001 21.7557 136.683 21.9659 137.49 21.9659C138.331 21.9659 139.033 21.7443 139.595 21.3011C140.163 20.8523 140.589 20.25 140.874 19.4943C141.163 18.733 141.308 17.8864 141.308 16.9545C141.308 16.0341 141.166 15.2045 140.882 14.4659C140.604 13.7216 140.18 13.1335 139.612 12.7017C139.05 12.2642 138.342 12.0455 137.49 12.0455C136.672 12.0455 135.984 12.2528 135.428 12.6676C134.871 13.0767 134.45 13.6506 134.166 14.3892C133.882 15.1222 133.74 15.9773 133.74 16.9545ZM152.081 10.4091V12.1136H145.297V10.4091H152.081ZM147.274 7.27273H149.286V19.75C149.286 20.3182 149.368 20.7443 149.533 21.0284C149.703 21.3068 149.919 21.4943 150.18 21.5909C150.447 21.6818 150.729 21.7273 151.024 21.7273C151.246 21.7273 151.428 21.7159 151.57 21.6932C151.712 21.6648 151.825 21.642 151.911 21.625L152.32 23.4318C152.183 23.483 151.993 23.5341 151.749 23.5852C151.504 23.642 151.195 23.6705 150.82 23.6705C150.251 23.6705 149.695 23.5483 149.149 23.304C148.609 23.0597 148.161 22.6875 147.803 22.1875C147.45 21.6875 147.274 21.0568 147.274 20.2955V7.27273Z" fill="black"/>
<defs>
<clipPath id="clip0_7_42">
<rect width="25" height="25" fill="white" transform="translate(0.5 0.5)"/>
</clipPath>
</defs>
</svg>
