<svg width="180" height="57" viewBox="0 0 180 57" fill="none" xmlns="http://www.w3.org/2000/svg">
<path d="M48.72 20.72C49.3333 20.72 49.7733 20.8533 50.04 21.12C50.3333 21.3867 50.48 21.7333 50.48 22.16C50.48 22.8533 50.2667 23.4667 49.84 24C49.44 24.5333 48.8 24.8133 47.92 24.84C45.8133 24.8667 43.92 24.7067 42.24 24.36C40.3733 28.3333 38.12 31.64 35.48 34.28C32.8667 36.8933 30.28 38.2 27.72 38.2C25.3733 38.2 23.6133 36.96 22.44 34.48C21.2667 31.9733 20.6 28.6267 20.44 24.44C18.84 29.08 17.0267 32.5333 15 34.8C13 37.0667 10.8667 38.2 8.6 38.2C6.04 38.2 4.10667 36.6133 2.8 33.44C1.49333 30.24 0.84 25.9467 0.84 20.56C0.84 16.64 1.18667 12.3333 1.88 7.64C2.06667 6.30667 2.4 5.38667 2.88 4.88C3.38667 4.34666 4.17333 4.08 5.24 4.08C6.04 4.08 6.65333 4.25333 7.08 4.6C7.53333 4.94667 7.76 5.58667 7.76 6.52C7.76 6.70667 7.73333 7.06667 7.68 7.6C6.88 13.0667 6.48 17.72 6.48 21.56C6.48 25.1333 6.78667 27.8933 7.4 29.84C8.01333 31.7867 8.84 32.76 9.88 32.76C10.8133 32.76 11.9333 31.7867 13.24 29.84C14.5733 27.8667 15.8933 24.96 17.2 21.12C18.5067 17.2533 19.6133 12.6533 20.52 7.32C20.7333 6.09333 21.12 5.25333 21.68 4.8C22.2667 4.32 23.0533 4.08 24.04 4.08C24.8667 4.08 25.4667 4.26666 25.84 4.64C26.24 4.98666 26.44 5.52 26.44 6.24C26.44 6.66666 26.4133 7 26.36 7.24C25.6133 11.5867 25.24 15.9333 25.24 20.28C25.24 23.24 25.3333 25.6 25.52 27.36C25.7333 29.12 26.12 30.4667 26.68 31.4C27.2667 32.3067 28.1067 32.76 29.2 32.76C30.48 32.76 31.9067 31.8 33.48 29.88C35.0533 27.9333 36.4933 25.52 37.8 22.64C36.1733 21.6267 34.9467 20.32 34.12 18.72C33.2933 17.0933 32.88 15.2267 32.88 13.12C32.88 11.0133 33.2 9.24 33.84 7.8C34.5067 6.33333 35.4 5.24 36.52 4.52C37.6667 3.8 38.9333 3.44 40.32 3.44C42.0267 3.44 43.3733 4.05333 44.36 5.28C45.3733 6.50667 45.88 8.18667 45.88 10.32C45.88 13.3333 45.2267 16.68 43.92 20.36C45.28 20.6 46.88 20.72 48.72 20.72ZM36.92 12.84C36.92 15.4533 37.76 17.3867 39.44 18.64C40.48 15.6533 41 13.1867 41 11.24C41 10.12 40.8533 9.30667 40.56 8.8C40.2667 8.26666 39.8667 8 39.36 8C38.64 8 38.0533 8.42666 37.6 9.28C37.1467 10.1067 36.92 11.2933 36.92 12.84ZM64.4319 29.08C64.7785 29.08 65.0452 29.24 65.2319 29.56C65.4452 29.88 65.5519 30.32 65.5519 30.88C65.5519 31.9467 65.2985 32.7733 64.7919 33.36C63.8052 34.56 62.4052 35.6667 60.5919 36.68C58.8052 37.6933 56.8852 38.2 54.8319 38.2C52.0319 38.2 49.8585 37.44 48.3119 35.92C46.7652 34.4 45.9919 32.32 45.9919 29.68C45.9919 27.84 46.3785 26.1333 47.1519 24.56C47.9252 22.96 48.9919 21.6933 50.3519 20.76C51.7385 19.8267 53.2985 19.36 55.0319 19.36C56.5785 19.36 57.8185 19.8267 58.7519 20.76C59.6852 21.6667 60.1519 22.9067 60.1519 24.48C60.1519 26.32 59.4852 27.9067 58.1519 29.24C56.8452 30.5467 54.6185 31.5867 51.4719 32.36C52.1385 33.5867 53.4052 34.2 55.2719 34.2C56.4719 34.2 57.8319 33.7867 59.3519 32.96C60.8985 32.1067 62.2319 31 63.3519 29.64C63.6719 29.2667 64.0319 29.08 64.4319 29.08ZM54.3519 23.28C53.3652 23.28 52.5252 23.8533 51.8319 25C51.1652 26.1467 50.8319 27.5333 50.8319 29.16V29.24C52.4052 28.8667 53.6452 28.3067 54.5519 27.56C55.4585 26.8133 55.9119 25.9467 55.9119 24.96C55.9119 24.4533 55.7652 24.0533 55.4719 23.76C55.2052 23.44 54.8319 23.28 54.3519 23.28ZM67.0197 38.2C65.3664 38.2 64.0464 37.6 63.0597 36.4C62.073 35.2 61.5797 33.6267 61.5797 31.68C61.5797 29.5467 62.073 27.5333 63.0597 25.64C64.0464 23.72 65.353 22.1867 66.9797 21.04C68.633 19.8667 70.3797 19.28 72.2197 19.28C72.8064 19.28 73.193 19.4 73.3797 19.64C73.593 19.8533 73.7664 20.2533 73.8997 20.84C74.4597 20.7333 75.0464 20.68 75.6597 20.68C76.9664 20.68 77.6197 21.1467 77.6197 22.08C77.6197 22.64 77.4197 23.9733 77.0197 26.08C76.4064 29.1467 76.0997 31.28 76.0997 32.48C76.0997 32.88 76.193 33.2 76.3797 33.44C76.593 33.68 76.8597 33.8 77.1797 33.8C77.6864 33.8 78.2997 33.48 79.0197 32.84C79.7397 32.1733 80.713 31.1067 81.9397 29.64C82.2597 29.2667 82.6197 29.08 83.0197 29.08C83.3664 29.08 83.633 29.24 83.8197 29.56C84.033 29.88 84.1397 30.32 84.1397 30.88C84.1397 31.9467 83.8864 32.7733 83.3797 33.36C82.2864 34.72 81.1264 35.8667 79.8997 36.8C78.673 37.7333 77.4864 38.2 76.3397 38.2C75.4597 38.2 74.6464 37.9067 73.8997 37.32C73.1797 36.7067 72.633 35.88 72.2597 34.84C70.873 37.08 69.1264 38.2 67.0197 38.2ZM68.4597 34.16C69.0464 34.16 69.6064 33.8133 70.1397 33.12C70.673 32.4267 71.0597 31.5067 71.2997 30.36L72.7797 23C71.6597 23.0267 70.6197 23.4533 69.6597 24.28C68.7264 25.08 67.9797 26.1467 67.4197 27.48C66.8597 28.8133 66.5797 30.2267 66.5797 31.72C66.5797 32.5467 66.7397 33.16 67.0597 33.56C67.4064 33.96 67.873 34.16 68.4597 34.16ZM98.7288 29.08C99.0754 29.08 99.3421 29.24 99.5287 29.56C99.7421 29.88 99.8488 30.32 99.8488 30.88C99.8488 31.9467 99.5954 32.7733 99.0888 33.36C97.9421 34.7733 96.6888 35.9333 95.3288 36.84C93.9688 37.7467 92.4088 38.2 90.6488 38.2C85.2088 38.2 82.4888 34.3733 82.4888 26.72C82.4888 25.5467 82.5288 24.36 82.6088 23.16H81.0488C80.2488 23.16 79.7021 23.0133 79.4088 22.72C79.1421 22.4267 79.0088 21.96 79.0088 21.32C79.0088 19.8267 79.6088 19.08 80.8088 19.08H83.0888C83.5421 16.1467 84.2354 13.4667 85.1688 11.04C86.1021 8.61333 87.2221 6.68 88.5288 5.24C89.8621 3.8 91.2888 3.08 92.8088 3.08C93.9288 3.08 94.8088 3.57333 95.4488 4.56C96.0888 5.54667 96.4088 6.78667 96.4088 8.28C96.4088 12.4133 94.6754 16.0133 91.2088 19.08H95.6888C96.1154 19.08 96.4221 19.1733 96.6088 19.36C96.7954 19.5467 96.8888 19.8933 96.8888 20.4C96.8888 22.24 95.3821 23.16 92.3688 23.16H87.4888C87.4354 24.4933 87.4088 25.5333 87.4088 26.28C87.4088 29.0533 87.7288 31 88.3688 32.12C89.0354 33.24 90.0754 33.8 91.4888 33.8C92.6354 33.8 93.6488 33.4533 94.5288 32.76C95.4088 32.0667 96.4488 31.0267 97.6488 29.64C97.9688 29.2667 98.3288 29.08 98.7288 29.08ZM91.7288 6.92C91.3288 6.92 90.8754 7.42667 90.3688 8.44C89.8888 9.42667 89.4221 10.8133 88.9688 12.6C88.5421 14.36 88.1821 16.32 87.8888 18.48C89.4621 17.12 90.6354 15.6 91.4088 13.92C92.2088 12.2133 92.6088 10.6667 92.6088 9.28C92.6088 7.70667 92.3154 6.92 91.7288 6.92ZM118.792 29.08C119.139 29.08 119.405 29.24 119.592 29.56C119.805 29.88 119.912 30.32 119.912 30.88C119.912 31.9467 119.659 32.7733 119.152 33.36C117.925 34.7733 116.659 35.9333 115.352 36.84C114.072 37.7467 112.605 38.2 110.952 38.2C109.592 38.2 108.565 37.8133 107.872 37.04C107.179 36.24 106.832 35.0933 106.832 33.6C106.832 32.8533 107.019 31.52 107.392 29.6C107.739 27.92 107.912 26.76 107.912 26.12C107.912 25.6933 107.765 25.48 107.472 25.48C107.125 25.48 106.632 25.9333 105.992 26.84C105.352 27.72 104.712 28.8933 104.072 30.36C103.432 31.8267 102.912 33.3733 102.512 35C102.005 37.1333 100.752 38.2 98.7519 38.2C97.9519 38.2 97.4185 37.92 97.1519 37.36C96.9119 36.7733 96.7919 35.7333 96.7919 34.24C96.7919 33.3867 96.8052 32.7067 96.8319 32.2L96.8719 29C96.8719 24.8933 97.2852 20.6133 98.1119 16.16C98.9652 11.7067 100.205 7.97333 101.832 4.96C103.485 1.92 105.459 0.399998 107.752 0.399998C108.979 0.399998 109.965 0.933331 110.712 2C111.485 3.04 111.872 4.4 111.872 6.08C111.872 8.77333 111.085 11.5733 109.512 14.48C107.939 17.36 105.379 20.7333 101.832 24.6C101.752 25.9867 101.712 27.4133 101.712 28.88C102.592 26.6133 103.565 24.7733 104.632 23.36C105.725 21.92 106.792 20.8933 107.832 20.28C108.899 19.6667 109.872 19.36 110.752 19.36C112.485 19.36 113.352 20.2267 113.352 21.96C113.352 23 113.059 24.88 112.472 27.6C111.965 29.92 111.712 31.4533 111.712 32.2C111.712 33.2667 112.099 33.8 112.872 33.8C113.405 33.8 114.032 33.48 114.752 32.84C115.499 32.1733 116.485 31.1067 117.712 29.64C118.032 29.2667 118.392 29.08 118.792 29.08ZM106.912 4.36C106.432 4.36 105.899 5.05333 105.312 6.44C104.725 7.8 104.152 9.65333 103.592 12C103.059 14.32 102.619 16.8533 102.272 19.6C103.925 17.6533 105.285 15.5333 106.352 13.24C107.445 10.9467 107.992 8.86667 107.992 7C107.992 6.14667 107.899 5.49333 107.712 5.04C107.525 4.58667 107.259 4.36 106.912 4.36ZM134.51 29.08C134.857 29.08 135.123 29.24 135.31 29.56C135.523 29.88 135.63 30.32 135.63 30.88C135.63 31.9467 135.377 32.7733 134.87 33.36C133.883 34.56 132.483 35.6667 130.67 36.68C128.883 37.6933 126.963 38.2 124.91 38.2C122.11 38.2 119.937 37.44 118.39 35.92C116.843 34.4 116.07 32.32 116.07 29.68C116.07 27.84 116.457 26.1333 117.23 24.56C118.003 22.96 119.07 21.6933 120.43 20.76C121.817 19.8267 123.377 19.36 125.11 19.36C126.657 19.36 127.897 19.8267 128.83 20.76C129.763 21.6667 130.23 22.9067 130.23 24.48C130.23 26.32 129.563 27.9067 128.23 29.24C126.923 30.5467 124.697 31.5867 121.55 32.36C122.217 33.5867 123.483 34.2 125.35 34.2C126.55 34.2 127.91 33.7867 129.43 32.96C130.977 32.1067 132.31 31 133.43 29.64C133.75 29.2667 134.11 29.08 134.51 29.08ZM124.43 23.28C123.443 23.28 122.603 23.8533 121.91 25C121.243 26.1467 120.91 27.5333 120.91 29.16V29.24C122.483 28.8667 123.723 28.3067 124.63 27.56C125.537 26.8133 125.99 25.9467 125.99 24.96C125.99 24.4533 125.843 24.0533 125.55 23.76C125.283 23.44 124.91 23.28 124.43 23.28ZM135.213 38.2C134.2 38.2 133.48 37.6667 133.053 36.6C132.653 35.5333 132.453 33.8267 132.453 31.48C132.453 28.0133 132.946 24.72 133.933 21.6C134.173 20.8267 134.56 20.2667 135.093 19.92C135.653 19.5467 136.426 19.36 137.413 19.36C137.946 19.36 138.32 19.4267 138.533 19.56C138.746 19.6933 138.853 19.9467 138.853 20.32C138.853 20.7467 138.653 21.7067 138.253 23.2C137.986 24.2667 137.773 25.2 137.613 26C137.453 26.8 137.32 27.7867 137.213 28.96C138.093 26.6667 139.08 24.8 140.173 23.36C141.266 21.92 142.333 20.8933 143.373 20.28C144.44 19.6667 145.413 19.36 146.293 19.36C148.026 19.36 148.893 20.2267 148.893 21.96C148.893 22.3067 148.773 23.1467 148.533 24.48C148.32 25.5467 148.213 26.2133 148.213 26.48C148.213 27.4133 148.546 27.88 149.213 27.88C149.96 27.88 150.92 27.2933 152.093 26.12C152.44 25.7733 152.8 25.6 153.173 25.6C153.52 25.6 153.786 25.76 153.973 26.08C154.186 26.3733 154.293 26.7733 154.293 27.28C154.293 28.2667 154.026 29.04 153.493 29.6C152.746 30.3733 151.866 31.04 150.853 31.6C149.866 32.1333 148.813 32.4 147.693 32.4C146.28 32.4 145.2 32.04 144.453 31.32C143.733 30.6 143.373 29.6267 143.373 28.4C143.373 28 143.413 27.6 143.493 27.2C143.546 26.6667 143.573 26.3067 143.573 26.12C143.573 25.6933 143.426 25.48 143.133 25.48C142.733 25.48 142.2 25.9333 141.533 26.84C140.893 27.72 140.253 28.8933 139.613 30.36C138.973 31.8267 138.453 33.3733 138.053 35C137.76 36.2533 137.413 37.1067 137.013 37.56C136.64 37.9867 136.04 38.2 135.213 38.2ZM165.736 29.08C166.083 29.08 166.35 29.24 166.536 29.56C166.75 29.88 166.856 30.32 166.856 30.88C166.856 31.9467 166.603 32.7733 166.096 33.36C164.95 34.7733 163.696 35.9333 162.336 36.84C161.003 37.7467 159.483 38.2 157.776 38.2C155.43 38.2 153.683 37.1333 152.536 35C151.416 32.8667 150.856 30.1067 150.856 26.72C150.856 23.4667 151.27 19.76 152.096 15.6C152.95 11.44 154.19 7.86667 155.816 4.88C157.47 1.89333 159.43 0.399998 161.696 0.399998C162.976 0.399998 163.976 0.999998 164.696 2.2C165.443 3.37333 165.816 5.06667 165.816 7.28C165.816 10.4533 164.936 14.1333 163.176 18.32C161.416 22.5067 159.03 26.6533 156.016 30.76C156.203 31.8533 156.51 32.64 156.936 33.12C157.363 33.5733 157.923 33.8 158.616 33.8C159.71 33.8 160.67 33.4933 161.496 32.88C162.323 32.24 163.376 31.16 164.656 29.64C164.976 29.2667 165.336 29.08 165.736 29.08ZM160.816 4.36C160.203 4.36 159.51 5.46667 158.736 7.68C157.963 9.89333 157.283 12.64 156.696 15.92C156.11 19.2 155.79 22.3467 155.736 25.36C157.63 22.24 159.136 19.12 160.256 16C161.376 12.8533 161.936 9.98666 161.936 7.4C161.936 5.37333 161.563 4.36 160.816 4.36ZM177.623 19.36C178.236 19.36 178.663 19.44 178.903 19.6C179.143 19.76 179.263 20.0267 179.263 20.4C179.263 21.04 178.916 23.32 178.223 27.24C177.61 31 177.25 33.2267 177.143 33.92C176.156 40.7733 174.796 46.2 173.063 50.2C171.33 54.2 169.023 56.2 166.143 56.2C164.783 56.2 163.676 55.7733 162.823 54.92C161.97 54.0933 161.543 53 161.543 51.64C161.543 50.3867 161.823 49.1067 162.383 47.8C162.97 46.4933 164.036 44.9867 165.583 43.28C167.156 41.6 169.37 39.6667 172.223 37.48L172.343 36.56C172.53 35.5733 172.743 34.16 172.983 32.32C172.45 34.24 171.703 35.7067 170.743 36.72C169.783 37.7067 168.77 38.2 167.703 38.2C166.503 38.2 165.516 37.6533 164.743 36.56C163.996 35.44 163.623 34.0533 163.623 32.4C163.623 30.4 163.756 28.5733 164.023 26.92C164.29 25.24 164.73 23.4667 165.343 21.6C165.61 20.8 165.983 20.2267 166.463 19.88C166.943 19.5333 167.703 19.36 168.743 19.36C169.33 19.36 169.73 19.4533 169.943 19.64C170.183 19.8267 170.303 20.1067 170.303 20.48C170.303 20.6933 170.156 21.4133 169.863 22.64C169.596 23.6267 169.383 24.52 169.223 25.32C169.01 26.4133 168.823 27.4667 168.663 28.48C168.503 29.4667 168.423 30.28 168.423 30.92C168.423 31.9333 168.703 32.44 169.263 32.44C169.663 32.44 170.156 32.04 170.743 31.24C171.356 30.44 171.996 29.2267 172.663 27.6C173.356 25.9733 174.023 23.9733 174.663 21.6C174.876 20.8 175.196 20.2267 175.623 19.88C176.076 19.5333 176.743 19.36 177.623 19.36ZM166.583 52.32C167.25 52.32 167.996 51.5467 168.823 50C169.65 48.4533 170.476 45.88 171.303 42.28C169.25 44.0133 167.756 45.5867 166.823 47C165.916 48.44 165.463 49.6933 165.463 50.76C165.463 51.2133 165.543 51.5867 165.703 51.88C165.89 52.1733 166.183 52.32 166.583 52.32Z" fill="white"/>
</svg>
